<svg width="14" height="14" viewBox="0 0 14 14" xmlns="http://www.w3.org/2000/svg">
<g clip-path="url(#clip0_459_28530)">
<path d="M7 14C10.85 14 14 10.85 14 7C14 3.15 10.85 0 7 0C3.15 0 0 3.15 0 7C0 10.85 3.15 14 7 14ZM7 1.16667C10.2083 1.16667 12.8333 3.79167 12.8333 7C12.8333 10.2083 10.2083 12.8333 7 12.8333C3.79167 12.8333 1.16667 10.2083 1.16667 7C1.16667 3.79167 3.79167 1.16667 7 1.16667ZM7 8.16667C7.35 8.16667 7.58333 7.93333 7.58333 7.58333V3.5C7.58333 3.15 7.35 2.91667 7 2.91667C6.65 2.91667 6.41667 3.15 6.41667 3.5V7.58333C6.41667 7.875 6.65 8.16667 7 8.16667ZM7 9.275C6.65 9.275 6.35833 9.56667 6.35833 9.91667C6.35833 10.2667 6.65 10.5583 7 10.5583C7.35 10.5583 7.64167 10.2667 7.64167 9.91667C7.64167 9.56667 7.35 9.275 7 9.275Z" />
</g>
<defs>
<clipPath id="clip0_459_28530">
<rect width="14" height="14" fill="white" transform="matrix(-1 0 0 1 14 0)"/>
</clipPath>
</defs>
</svg>
