<svg width="25" height="24" viewBox="0 0 25 24" fill="none" xmlns="http://www.w3.org/2000/svg">
<path fill-rule="evenodd" clip-rule="evenodd" d="M2 12.002C2 6.19274 6.69079 1.50195 12.5 1.50195C18.3092 1.50195 23 6.19274 23 12.002C23 15.2485 21.535 18.1457 19.2285 20.07L19.2354 20.1049L19.1708 20.1178C17.3584 21.6082 15.0357 22.502 12.5 22.502C9.96426 22.502 7.64162 21.6082 5.82919 20.1178L5.76456 20.1049L5.77153 20.07C3.46502 18.1457 2 15.2485 2 12.002ZM7.42672 19.4426C8.86999 20.427 10.6162 21.002 12.5 21.002C14.3838 21.002 16.13 20.427 17.5733 19.4426L17.1554 17.3533C16.882 15.9861 15.6815 15.002 14.2873 15.002H10.7127C9.31847 15.002 8.11803 15.9861 7.84459 17.3533L7.42672 19.4426ZM18.885 18.3525C20.5023 16.7265 21.5 14.4836 21.5 12.002C21.5 7.02117 17.4808 3.00195 12.5 3.00195C7.51921 3.00195 3.5 7.02117 3.5 12.002C3.5 14.4836 4.49774 16.7265 6.11503 18.3525L6.37372 17.0591C6.69465 15.4545 7.85966 14.1986 9.35083 13.7162C8.51723 12.8994 8 11.761 8 10.5018C8 8.01659 10.0147 6.00195 12.5 6.00195C14.9853 6.00195 17 8.01659 17 10.5018C17 11.761 16.4828 12.8994 15.6492 13.7162C17.1403 14.1986 18.3054 15.4545 18.6263 17.0591L18.885 18.3525ZM12.5 7.50195C10.8431 7.50195 9.5 8.84507 9.5 10.5018C9.5 12.1586 10.8431 13.5017 12.5 13.5017C14.1569 13.5017 15.5 12.1586 15.5 10.5018C15.5 8.84507 14.1569 7.50195 12.5 7.50195Z" fill="white"/>
</svg>
