<svg width="22" height="18" viewBox="0 0 22 18" fill="none" xmlns="http://www.w3.org/2000/svg">
<path d="M2 0.00195312V16.502H21.5V18.002H1.25C0.835786 18.002 0.5 17.6662 0.5 17.252V0.00195312H2Z" fill="#333333"/>
<path fill-rule="evenodd" clip-rule="evenodd" d="M4.25 9.75195C3.83579 9.75195 3.5 10.0877 3.5 10.502V14.252C3.5 14.6662 3.83579 15.002 4.25 15.002H7.25C7.66421 15.002 8 14.6662 8 14.252V10.502C8 10.0877 7.66421 9.75195 7.25 9.75195H4.25ZM5 13.502V11.252H6.5V13.502H5Z" fill="#333333"/>
<path fill-rule="evenodd" clip-rule="evenodd" d="M9.5 3.00195C9.5 2.58774 9.83579 2.25195 10.25 2.25195H13.25C13.6642 2.25195 14 2.58774 14 3.00195V14.252C14 14.6662 13.6642 15.002 13.25 15.002H10.25C9.83579 15.002 9.5 14.6662 9.5 14.252V3.00195ZM11 3.75195V13.502H12.5V3.75195H11Z" fill="#333333"/>
<path fill-rule="evenodd" clip-rule="evenodd" d="M16.25 6.00195C15.8358 6.00195 15.5 6.33774 15.5 6.75195V14.252C15.5 14.6662 15.8358 15.002 16.25 15.002H19.25C19.6642 15.002 20 14.6662 20 14.252V6.75195C20 6.33774 19.6642 6.00195 19.25 6.00195H16.25ZM18.5 13.502H17V7.50195H18.5V13.502Z" fill="#333333"/>
</svg>
