<svg width="24" height="24" viewBox="0 0 24 24" fill="none" xmlns="http://www.w3.org/2000/svg">
<path fill-rule="evenodd" clip-rule="evenodd" d="M15.5695 12.3163C17.0442 11.2232 18 9.46979 18 7.49316C18 4.17946 15.3137 1.49316 12 1.49316C8.68629 1.49316 6 4.17946 6 7.49316C6 9.46979 6.95582 11.2232 8.43047 12.3163C5.71495 13.1901 3.75 15.7372 3.75 18.7432V21.7432C3.75 22.1574 4.08579 22.4932 4.5 22.4932H19.5C19.9142 22.4932 20.25 22.1574 20.25 21.7432V18.7432C20.25 15.7372 18.2851 13.1901 15.5695 12.3163ZM7.5 7.49316C7.5 5.00788 9.51472 2.99316 12 2.99316C14.4853 2.99316 16.5 5.00788 16.5 7.49316C16.5 9.97845 14.4853 11.9932 12 11.9932C9.51472 11.9932 7.5 9.97845 7.5 7.49316ZM10.5 13.4932C7.60051 13.4932 5.25 15.8437 5.25 18.7432V20.9932H18.75V18.7432C18.75 15.8437 16.3995 13.4932 13.5 13.4932H10.5Z" fill="#333333"/>
</svg>
