<svg width="24" height="24" viewBox="0 0 24 24" fill="none" xmlns="http://www.w3.org/2000/svg">
<path fill-rule="evenodd" clip-rule="evenodd" d="M3.0005 2.25391C3.0005 1.83969 3.33629 1.50391 3.7505 1.50391H13.5005C13.9147 1.50391 14.2505 1.83969 14.2505 2.25391V3.00391H20.2504C20.6646 3.00391 21.0004 3.33969 21.0004 3.75391V9.00391C21.0004 9.41812 20.6646 9.75391 20.2504 9.75391H17.2504V11.6289C17.2504 11.9232 17.0783 12.1903 16.8103 12.3119C16.5423 12.4335 16.228 12.3871 16.0065 12.1933L13.2186 9.75391H10.7823L7.99438 12.1933C7.77291 12.3871 7.45858 12.4335 7.19059 12.3119C6.92261 12.1903 6.7505 11.9232 6.7505 11.6289V9.75391H3.7505C3.33629 9.75391 3.0005 9.41812 3.0005 9.00391V2.25391ZM14.2505 8.66369L15.7504 9.97608V9.00391C15.7504 8.58969 16.0862 8.25391 16.5004 8.25391H19.5004V4.50391H14.2505V8.66369ZM4.5005 3.00391V8.25391H7.5005C7.91472 8.25391 8.2505 8.58969 8.2505 9.00391V9.97608L10.0066 8.43947C10.1433 8.31985 10.3188 8.25391 10.5005 8.25391H12.7505V3.00391H4.5005Z" fill="#333333"/>
<path fill-rule="evenodd" clip-rule="evenodd" d="M9.3755 16.5039C9.3755 17.2758 9.08397 17.9796 8.60501 18.5113C9.57099 19.0733 10.2692 20.0569 10.4344 21.2317L10.4932 21.6495L9.00781 21.8583L8.94906 21.4406C8.79288 20.3299 7.84257 19.5039 6.72099 19.5039H6.03002C4.90844 19.5039 3.95813 20.3299 3.80195 21.4406L3.7432 21.8583L2.25781 21.6495L2.31656 21.2317C2.48176 20.0569 3.18001 19.0733 4.146 18.5113C3.66703 17.9796 3.3755 17.2758 3.3755 16.5039C3.3755 14.8471 4.71865 13.5039 6.3755 13.5039C8.03236 13.5039 9.3755 14.8471 9.3755 16.5039ZM6.3755 15.0039C5.54708 15.0039 4.8755 15.6755 4.8755 16.5039C4.8755 17.3323 5.54708 18.0039 6.3755 18.0039C7.20393 18.0039 7.8755 17.3323 7.8755 16.5039C7.8755 15.6755 7.20393 15.0039 6.3755 15.0039Z" fill="#333333"/>
<path fill-rule="evenodd" clip-rule="evenodd" d="M15.396 18.5113C14.43 19.0733 13.7318 20.0569 13.5666 21.2317L13.5078 21.6495L14.9932 21.8583L15.0519 21.4406C15.2081 20.3299 16.1584 19.5039 17.28 19.5039H17.971C19.0926 19.5039 20.0429 20.3299 20.1991 21.4406L20.2578 21.8583L21.7432 21.6495L21.6844 21.2317C21.5193 20.0569 20.821 19.0733 19.855 18.5113C20.334 17.9796 20.6255 17.2758 20.6255 16.5039C20.6255 14.8471 19.2824 13.5039 17.6255 13.5039C15.9687 13.5039 14.6255 14.8471 14.6255 16.5039C14.6255 17.2758 14.917 17.9796 15.396 18.5113ZM17.6255 18.0039C18.4539 18.0039 19.1255 17.3323 19.1255 16.5039C19.1255 15.6755 18.4539 15.0039 17.6255 15.0039C16.7971 15.0039 16.1255 15.6755 16.1255 16.5039C16.1255 17.3323 16.7971 18.0039 17.6255 18.0039Z" fill="#333333"/>
</svg>
