<svg width="57" height="49" viewBox="0 0 57 49" fill="none" xmlns="http://www.w3.org/2000/svg">
<path d="M4.5 4.5V44.5H52.5V12.5H26.86L18.844 4.5H4.5ZM2.5 0.5H20.492L28.516 8.5H54.5C55.0304 8.5 55.5391 8.71071 55.9142 9.08579C56.2893 9.46086 56.5 9.96957 56.5 10.5V46.5C56.5 47.0304 56.2893 47.5391 55.9142 47.9142C55.5391 48.2893 55.0304 48.5 54.5 48.5H2.5C1.96957 48.5 1.46086 48.2893 1.08579 47.9142C0.710714 47.5391 0.5 47.0304 0.5 46.5V2.5C0.5 1.96957 0.710714 1.46086 1.08579 1.08579C1.46086 0.710714 1.96957 0.5 2.5 0.5Z" fill="#A8ABB2"/>
</svg>
