<svg width="16" height="16" viewBox="0 0 16 16" fill="none" xmlns="http://www.w3.org/2000/svg">
<path d="M8.5 4.75C8.5 5.16421 8.16421 5.5 7.75 5.5C7.33579 5.5 7 5.16421 7 4.75C7 4.33579 7.33579 4 7.75 4C8.16421 4 8.5 4.33579 8.5 4.75Z" fill="#007AB7"/>
<path d="M6.5 10.5V11.5H9.5V10.5H8.5V7C8.5 6.72386 8.27614 6.5 8 6.5H6.5V7.5H7.5V10.5H6.5Z" fill="#007AB7"/>
<path fill-rule="evenodd" clip-rule="evenodd" d="M1 8C1 4.12719 4.12719 1 8 1C11.8728 1 15 4.12719 15 8C15 11.8728 11.8728 15 8 15C4.12719 15 1 11.8728 1 8ZM8 2C4.67948 2 2 4.67948 2 8C2 11.3205 4.67948 14 8 14C11.3205 14 14 11.3205 14 8C14 4.67948 11.3205 2 8 2Z" fill="#007AB7"/>
</svg>
