<svg width="24" height="24" viewBox="0 0 24 24" fill="none" xmlns="http://www.w3.org/2000/svg">
<path d="M6.75 12.3757C6.75 12.9971 6.24632 13.5007 5.625 13.5007C5.00368 13.5007 4.5 12.9971 4.5 12.3757C4.5 11.7544 5.00368 11.2507 5.625 11.2507C6.24632 11.2507 6.75 11.7544 6.75 12.3757Z" fill="#333333"/>
<path d="M9 13.5007C9.62132 13.5007 10.125 12.9971 10.125 12.3757C10.125 11.7544 9.62132 11.2507 9 11.2507C8.37868 11.2507 7.875 11.7544 7.875 12.3757C7.875 12.9971 8.37868 13.5007 9 13.5007Z" fill="#333333"/>
<path d="M13.5 12.3757C13.5 12.9971 12.9963 13.5007 12.375 13.5007C11.7537 13.5007 11.25 12.9971 11.25 12.3757C11.25 11.7544 11.7537 11.2507 12.375 11.2507C12.9963 11.2507 13.5 11.7544 13.5 12.3757Z" fill="#333333"/>
<path fill-rule="evenodd" clip-rule="evenodd" d="M22.5 4.50293C22.5 3.6745 21.8284 3.00293 21 3.00293H9C8.17157 3.00293 7.5 3.6745 7.5 4.50293V6.75293H3C2.17157 6.75293 1.5 7.4245 1.5 8.25293V16.5029C1.5 17.3314 2.17157 18.0029 3 18.0029H3.75V21.0005C3.75 21.2846 3.9105 21.5443 4.16459 21.6714C4.41868 21.7984 4.72274 21.771 4.95 21.6005L9.74683 18.0029H15C15.8284 18.0029 16.5 17.3314 16.5 16.5029V15.188L19.05 17.1005C19.2773 17.271 19.5813 17.2984 19.8354 17.1714C20.0895 17.0443 20.25 16.7846 20.25 16.5005V13.5029H21C21.8284 13.5029 22.5 12.8314 22.5 12.0029V4.50293ZM16.5 13.313L18.75 15.0005V12.7529C18.75 12.3387 19.0858 12.0029 19.5 12.0029H21V4.50293L9 4.50293V6.75293H15C15.8284 6.75293 16.5 7.4245 16.5 8.25293V13.313ZM15 16.5029V8.25293H3V16.5029H4.5C4.91421 16.5029 5.25 16.8387 5.25 17.2529V19.5005L9.04683 16.6529C9.17665 16.5556 9.33455 16.5029 9.49683 16.5029H15Z" fill="#333333"/>
</svg>
