<svg width="18" height="18" viewBox="0 0 18 18" fill="none" xmlns="http://www.w3.org/2000/svg">
<path d="M14.45 11.6387C14.45 11.6386 14.45 11.6385 14.45 11.6385C14.4503 11.5393 14.4215 11.4421 14.3671 11.3591C14.3127 11.2761 14.2351 11.2109 14.1439 11.1717C14.0528 11.1325 13.9521 11.121 13.8544 11.1386C13.7567 11.1562 13.6664 11.2022 13.5947 11.2708L13.5946 11.2708L14.4 3.35609C14.4 2.91951 14.2267 2.50081 13.9182 2.1921C13.6097 1.88339 13.1913 1.70996 12.755 1.70996H3.35502C2.91874 1.70996 2.50033 1.88339 2.19183 2.1921C1.88333 2.50081 1.71002 2.91951 1.71002 3.35609V14.6438C1.71002 15.0804 1.88333 15.4991 2.19183 15.8078C2.50033 16.1165 2.91874 16.29 3.35502 16.29H12.755C13.1913 16.29 13.6097 16.1165 13.9182 15.8078C14.2267 15.4991 14.4 15.0804 14.4 14.6438V11.6385L14.45 11.6387ZM14.45 11.6387L14.45 14.6438C14.45 15.0937 14.2714 15.5251 13.9536 15.8432C13.6357 16.1613 13.2046 16.34 12.755 16.34H3.35502C2.90547 16.34 2.47433 16.1613 2.15646 15.8432C1.83859 15.5251 1.66002 15.0937 1.66002 14.6438V3.35609C1.66002 2.90626 1.83859 2.47485 2.15646 2.15676C2.47433 1.83867 2.90547 1.65996 3.35502 1.65996H12.755C13.2046 1.65996 13.6357 1.83867 13.9536 2.15676C14.2714 2.47485 14.45 2.90626 14.45 3.35609L14.45 4.12711V11.6387ZM14.4028 4.35475C14.4344 4.2831 14.4505 4.20557 14.45 4.12726L13.46 11.7043H13.41V11.7043V14.625C13.41 14.7138 13.3925 14.8016 13.3585 14.8836C13.3245 14.9655 13.2747 15.04 13.2119 15.1026C13.1491 15.1652 13.0745 15.2149 12.9925 15.2486C12.9105 15.2824 12.8227 15.2996 12.734 15.2993H12.7339H3.37382C3.28534 15.2993 3.19773 15.2819 3.11598 15.248C3.03423 15.2141 2.95995 15.1644 2.89738 15.1018C2.83481 15.0392 2.78518 14.9649 2.75132 14.8831C2.71745 14.8013 2.70002 14.7136 2.70002 14.625V3.3749C2.70002 3.28635 2.71745 3.19866 2.75132 3.11685C2.78518 3.03504 2.83481 2.9607 2.89738 2.89809C2.95995 2.83548 3.03423 2.78581 3.11598 2.75193C3.19773 2.71805 3.28534 2.70061 3.37382 2.70061L12.7339 2.70061L12.734 2.70061C12.8227 2.70032 12.9105 2.71754 12.9925 2.7513C13.0745 2.78505 13.1491 2.83467 13.2119 2.89732C13.2747 2.95996 13.3245 3.03439 13.3585 3.11634C13.3925 3.1983 13.41 3.28616 13.41 3.3749L13.41 4.15564L13.41 4.15659C13.4119 4.25491 13.4416 4.35068 13.4956 4.43282C13.5497 4.51496 13.6259 4.58009 13.7154 4.62066C13.8049 4.66124 13.9041 4.67559 14.0015 4.66206C14.0988 4.64853 14.1903 4.60767 14.2654 4.54422L14.2655 4.54424L14.2667 4.54315C14.3248 4.49066 14.3712 4.42645 14.4028 4.35475Z" fill="#262626" stroke="#262626" stroke-width="0.1"/>
<path d="M4.25796 6.02979H10.2321C10.5507 6.02979 10.71 6.19479 10.71 6.52479C10.71 6.85478 10.5507 7.01978 10.2321 7.01978H4.25796C3.93934 7.01978 3.78003 6.85478 3.78003 6.52479C3.78003 6.19479 3.93934 6.02979 4.25796 6.02979Z" fill="#262626"/>
<path d="M4.25371 8.91016H7.80634C8.12213 8.91016 8.28003 9.06016 8.28003 9.36016C8.28003 9.66016 8.12213 9.81016 7.80634 9.81016H4.25371C3.93792 9.81016 3.78003 9.66016 3.78003 9.36016C3.78003 9.06016 3.93792 8.91016 4.25371 8.91016Z" fill="#262626"/>
<path d="M4.26003 11.7002H6.18003C6.50003 11.7002 6.66003 11.8652 6.66003 12.1952C6.66003 12.5252 6.50003 12.6902 6.18003 12.6902H4.26003C3.94003 12.6902 3.78003 12.5252 3.78003 12.1952C3.78003 11.8652 3.94003 11.7002 4.26003 11.7002Z" fill="#262626"/>
<path d="M10.987 12.719L15.9682 7.79609C16.0702 7.6955 16.1511 7.57601 16.2064 7.44448C16.2616 7.31294 16.29 7.17193 16.29 7.02953C16.29 6.88713 16.2616 6.74612 16.2064 6.61459C16.1511 6.48305 16.0702 6.36357 15.9682 6.26297L15.5081 5.80819C15.4063 5.7074 15.2854 5.62744 15.1523 5.57288C15.0192 5.51832 14.8765 5.49023 14.7324 5.49023C14.5883 5.49023 14.4457 5.51832 14.3126 5.57288C14.1795 5.62744 14.0586 5.7074 13.9568 5.80819L8.97079 10.7311C8.93182 10.7701 8.90997 10.8227 8.90997 10.8776C8.90997 10.9324 8.93182 10.9851 8.97079 11.0241L10.6881 12.719C10.7077 12.7384 10.731 12.7538 10.7567 12.7643C10.7823 12.7748 10.8098 12.7802 10.8376 12.7802C10.8653 12.7802 10.8928 12.7748 10.9185 12.7643C10.9441 12.7538 10.9674 12.7384 10.987 12.719ZM15.1618 6.76229C15.2288 6.82942 15.2664 6.91996 15.2664 7.01429C15.2664 7.10863 15.2288 7.19917 15.1618 7.2663L11.1127 11.2679C11.0794 11.3009 11.0399 11.3271 10.9963 11.345C10.9528 11.3629 10.9061 11.3721 10.8589 11.3721C10.8118 11.3721 10.7651 11.3629 10.7215 11.345C10.6779 11.3271 10.6384 11.3009 10.6051 11.2679L10.4414 11.1061C10.408 11.0733 10.3815 11.0342 10.3634 10.9911C10.3453 10.9481 10.336 10.9019 10.336 10.8553C10.336 10.8087 10.3453 10.7625 10.3634 10.7195C10.3815 10.6765 10.408 10.6374 10.4414 10.6045L14.4905 6.60288C14.5584 6.5366 14.65 6.49943 14.7455 6.49943C14.8409 6.49943 14.9325 6.5366 15.0005 6.60288L15.1618 6.76229Z" fill="#262626"/>
<path d="M11.0587 11.8297L9.93824 10.7091C9.86032 10.6323 9.76353 10.5773 9.65761 10.5498C9.55169 10.5223 9.44038 10.5232 9.33491 10.5523C9.22943 10.5815 9.13351 10.638 9.0568 10.716C8.98009 10.7941 8.9253 10.891 8.89795 10.9969L8.38371 12.9101C8.36553 12.9774 8.36542 13.0483 8.38339 13.1157C8.40137 13.183 8.43678 13.2444 8.48607 13.2937C8.53536 13.343 8.59677 13.3784 8.66412 13.3964C8.73146 13.4144 8.80236 13.4142 8.86965 13.3961L10.7827 12.8818C10.8901 12.8541 10.9881 12.7983 11.0667 12.72C11.1452 12.6418 11.2015 12.544 11.2296 12.4368C11.2577 12.3295 11.2567 12.2167 11.2267 12.11C11.1967 12.0033 11.1387 11.9065 11.0587 11.8297ZM10.0161 12.5162L9.24 12.7261C9.2126 12.7331 9.18384 12.7329 9.15656 12.7255C9.12927 12.718 9.1044 12.7036 9.0844 12.6836C9.0644 12.6636 9.04996 12.6387 9.04249 12.6114C9.03503 12.5841 9.03481 12.5553 9.04185 12.528L9.25179 11.7518C9.26325 11.709 9.28578 11.67 9.3171 11.6387C9.34842 11.6073 9.38744 11.5848 9.43023 11.5733C9.47302 11.5619 9.51808 11.5618 9.56088 11.5733C9.60368 11.5848 9.6427 11.6073 9.67404 11.6386L10.1293 12.0939C10.1606 12.1252 10.1832 12.1643 10.1946 12.2071C10.2061 12.2499 10.2061 12.2949 10.1946 12.3377C10.1831 12.3805 10.1606 12.4195 10.1292 12.4508C10.0979 12.4822 10.0589 12.5047 10.0161 12.5162Z" fill="#262626"/>
</svg>
