<svg width="95" height="94" viewBox="0 0 95 94" fill="none" xmlns="http://www.w3.org/2000/svg">
<path d="M0.5 47C0.5 21.0426 21.5426 0 47.5 0C73.4574 0 94.5 21.0426 94.5 47C94.5 72.9574 73.4574 94 47.5 94C21.5426 94 0.5 72.9574 0.5 47Z" fill="#DB373C"/>
<path fill-rule="evenodd" clip-rule="evenodd" d="M8.33203 47C8.33203 25.3688 25.8675 7.83331 47.4987 7.83331C69.1299 7.83331 86.6654 25.3688 86.6654 47C86.6654 68.6311 69.1299 86.1666 47.4987 86.1666C25.8675 86.1666 8.33203 68.6311 8.33203 47ZM43.5821 62.3307L68.8724 37.0404L63.3334 31.5014L43.5821 51.2527L32.6433 40.3139L27.1043 45.8529L43.5821 62.3307Z" fill="#DB373C"/>
<path d="M47 43.5721L64.1689 26.4033C64.9773 25.5948 66.2882 25.5948 67.0967 26.4033C67.9052 27.2117 67.9052 28.5226 67.0967 29.3311L49.9279 46.5L67.0968 63.6689C67.9053 64.4774 67.9053 65.7882 67.0968 66.5967C66.2883 67.4052 64.9774 67.4052 64.1689 66.5967L47 49.4279L29.8311 66.5967C29.0226 67.4052 27.7118 67.4052 26.9033 66.5967C26.0947 65.7883 26.0947 64.4774 26.9033 63.6689L44.072 46.5L26.9033 29.3311C26.0947 28.5227 26.0947 27.2118 26.9033 26.4033C27.7117 25.5948 29.0226 25.5948 29.8311 26.4033L47 43.5721V43.5721Z" fill="white"/>
</svg>
