<svg width="24" height="24" viewBox="0 0 24 24" fill="none" xmlns="http://www.w3.org/2000/svg">
<path d="M5.25 14.251V12.751H6.75V7.50098H8.25V12.751H9.75V6.00098H11.25V12.751H12.75V9.75098H14.25V12.751H15.75V14.251H5.25Z" fill="#333333"/>
<path fill-rule="evenodd" clip-rule="evenodd" d="M10.5 1.50098C5.52944 1.50098 1.5 5.53041 1.5 10.501C1.5 15.4715 5.52944 19.501 10.5 19.501C12.7153 19.501 14.7436 18.7006 16.3116 17.3733L21.2197 22.2813L22.2803 21.2206L17.3723 16.3126C18.6996 14.7446 19.5 12.7163 19.5 10.501C19.5 5.53041 15.4706 1.50098 10.5 1.50098ZM3 10.501C3 6.35884 6.35786 3.00098 10.5 3.00098C14.6421 3.00098 18 6.35884 18 10.501C18 14.6431 14.6421 18.001 10.5 18.001C6.35786 18.001 3 14.6431 3 10.501Z" fill="#333333"/>
</svg>
