<svg width="24" height="22" viewBox="0 0 24 22" fill="none" xmlns="http://www.w3.org/2000/svg">
<path d="M11 8.62793C11.6213 8.62793 12.125 8.12425 12.125 7.50293C12.125 6.88161 11.6213 6.37793 11 6.37793C10.3787 6.37793 9.875 6.88161 9.875 7.50293C9.875 8.12425 10.3787 8.62793 11 8.62793Z" fill="#333333"/>
<path d="M7.25 7.50293C7.25 8.12425 6.74632 8.62793 6.125 8.62793C5.50368 8.62793 5 8.12425 5 7.50293C5 6.88161 5.50368 6.37793 6.125 6.37793C6.74632 6.37793 7.25 6.88161 7.25 7.50293Z" fill="#333333"/>
<path d="M15.875 8.62793C16.4963 8.62793 17 8.12425 17 7.50293C17 6.88161 16.4963 6.37793 15.875 6.37793C15.2537 6.37793 14.75 6.88161 14.75 7.50293C14.75 8.12425 15.2537 8.62793 15.875 8.62793Z" fill="#333333"/>
<path fill-rule="evenodd" clip-rule="evenodd" d="M2 0.00292969C1.17157 0.00292969 0.5 0.674503 0.5 1.50293V13.5029C0.5 14.3314 1.17157 15.0029 2 15.0029H5.00018V18.7516C5.00018 19.0381 5.16335 19.2995 5.42067 19.4254C5.67799 19.5512 5.98453 19.5195 6.21064 19.3437L11.7916 15.0029H20C20.8284 15.0029 21.5 14.3314 21.5 13.5029V1.50293C21.5 0.674502 20.8284 0.00292969 20 0.00292969H2ZM2 1.50293L20 1.50293V13.5029H11.5342C11.3675 13.5029 11.2054 13.5585 11.0738 13.6609L6.50018 17.2182V14.2529C6.50018 13.8387 6.1644 13.5029 5.75018 13.5029H2V1.50293Z" fill="#333333"/>
</svg>
