<svg width="24" height="24" viewBox="0 0 24 24" fill="none" xmlns="http://www.w3.org/2000/svg">
<path d="M15.7499 11.2499L8.24988 11.2487L8.25012 9.74872L15.7501 9.74988L15.7499 11.2499Z" fill="#333333"/>
<path d="M8.24988 14.2487L15.7499 14.2499L15.7501 12.7499L8.25012 12.7487L8.24988 14.2487Z" fill="#333333"/>
<path d="M11.9997 17.25L8.24974 17.2487L8.25026 15.7487L12.0003 15.75L11.9997 17.25Z" fill="#333333"/>
<path fill-rule="evenodd" clip-rule="evenodd" d="M8.05499 1.72532C8.19607 1.58122 8.38924 1.5 8.59091 1.5H19.5C19.9142 1.5 20.25 1.83579 20.25 2.25V21.75C20.25 22.1642 19.9142 22.5 19.5 22.5H4.5C4.08579 22.5 3.75 22.1642 3.75 21.75V6.42857C3.75 6.23241 3.82685 6.04406 3.96408 5.90389L8.05499 1.72532ZM5.96917 6H8.25V3.6703L5.96917 6ZM9.75 3V6.75C9.75 7.16421 9.41421 7.5 9 7.5H5.25V21H18.75V3H9.75Z" fill="#333333"/>
</svg>
