<svg width="24" height="24" viewBox="0 0 24 24" fill="none" xmlns="http://www.w3.org/2000/svg">
<path fill-rule="evenodd" clip-rule="evenodd" d="M12 1.5C6.61522 1.5 2.25 5.86522 2.25 11.25V18C2.25 19.6569 3.59315 21 5.25 21H7.5V20.8994C8.72689 21.9 10.2934 22.5 12 22.5C13.7066 22.5 15.2731 21.9 16.5 20.8994V21H18.75C20.4069 21 21.75 19.6569 21.75 18V11.25C21.75 5.86522 17.3848 1.5 12 1.5ZM17.8102 19.5H18.75C19.5784 19.5 20.25 18.8284 20.25 18V11.25C20.25 6.69365 16.5563 3 12 3C7.44365 3 3.75 6.69365 3.75 11.25V18C3.75 18.8284 4.42157 19.5 5.25 19.5H6.18983C5.36187 18.3359 4.875 16.9123 4.875 15.375V11.625C4.875 7.68997 8.06497 4.5 12 4.5C15.935 4.5 19.125 7.68997 19.125 11.625V15.375C19.125 16.9123 18.6381 18.3359 17.8102 19.5ZM17.625 13.4773V13.5C17.625 14.5362 17.114 15.3656 16.3634 15.9582C15.8922 16.3302 15.346 16.5917 14.8183 16.7377C14.474 15.9363 13.6776 15.375 12.75 15.375C11.5074 15.375 10.5 16.3824 10.5 17.625C10.5 18.8676 11.5074 19.875 12.75 19.875C13.7723 19.875 14.6353 19.1933 14.9092 18.2597C15.7351 18.0809 16.5805 17.6979 17.2929 17.1355C17.316 17.1173 17.339 17.0988 17.3619 17.0801C16.6397 19.3531 14.5122 21 12 21C8.8934 21 6.375 18.4816 6.375 15.375V13.3866C7.62741 13.141 9.05323 12.4686 9.93173 11.101C10.8047 11.902 11.953 12.4481 13.1946 12.8133C14.5513 13.2123 16.0804 13.4138 17.625 13.4773ZM12 6C8.8934 6 6.375 8.5184 6.375 11.625V11.8529C7.46862 11.5694 8.59161 10.8535 9.03849 9.51283C9.12907 9.24108 9.36653 9.04466 9.65045 9.00664C9.93437 8.96861 10.2151 9.09563 10.374 9.33397C10.9856 10.2513 12.1055 10.9294 13.6179 11.3742C14.8104 11.725 16.1897 11.9133 17.625 11.976V11.625C17.625 8.5184 15.1066 6 12 6ZM12 17.625C12 17.2108 12.3358 16.875 12.75 16.875C13.1642 16.875 13.5 17.2108 13.5 17.625C13.5 18.0392 13.1642 18.375 12.75 18.375C12.3358 18.375 12 18.0392 12 17.625Z" fill="#333333"/>
</svg>
