<svg width="16" height="16" viewBox="0 0 16 16" fill="none" xmlns="http://www.w3.org/2000/svg">
<path d="M3.1238 4.49804C4.21298 2.98398 5.99023 1.99805 7.99775 1.99805C11.3115 1.99805 13.9978 4.68434 13.9978 7.99805C13.9977 11.0578 11.7074 13.5826 8.74764 13.9516V14.9583C12.261 14.5842 14.9978 11.6107 14.9978 7.99805C14.9978 4.13205 11.8637 0.998047 7.99775 0.998047C5.76672 0.998047 3.77946 2.04178 2.49763 3.6676L2.49763 1.49805H1.49763L1.49763 4.99805C1.49763 5.13066 1.55031 5.25783 1.64408 5.3516C1.73784 5.44537 1.86502 5.49805 1.99763 5.49805L5.49763 5.49803L5.49763 4.49803L3.1238 4.49804Z" fill="#8E8E8E"/>
<path d="M7.24764 14.9583V13.9516C6.69559 13.8828 6.16683 13.7389 5.67187 13.5306L5.16838 14.4027C5.81582 14.6891 6.51484 14.8803 7.24764 14.9583Z" fill="#8E8E8E"/>
<path d="M3.86976 13.6519C3.28751 13.2261 2.7735 12.7125 2.34721 12.1306L3.21928 11.6271C3.54983 12.0617 3.93831 12.4498 4.3732 12.78L3.86976 13.6519Z" fill="#8E8E8E"/>
<path d="M1.01562 8.5022C1.0743 9.32667 1.27576 10.1117 1.59542 10.8326L2.46742 10.3292C2.22708 9.75967 2.07213 9.14534 2.01863 8.5022H1.01562Z" fill="#8E8E8E"/>
</svg>
