<svg width="20" height="20" viewBox="0 0 20 20" fill="none" xmlns="http://www.w3.org/2000/svg">
<path fill-rule="evenodd" clip-rule="evenodd" d="M7.74998 0.253906C3.60786 0.253906 0.25 3.61176 0.25 7.75389C0.25 11.896 3.60786 15.2539 7.74998 15.2539C9.55093 15.2539 11.2036 14.6191 12.4965 13.5611L18.4696 19.5342L19.5303 18.4735L13.5572 12.5004C14.6152 11.2075 15.25 9.55484 15.25 7.75389C15.25 3.61176 11.8921 0.253906 7.74998 0.253906ZM1.75 7.75389C1.75 4.44019 4.43628 1.7539 7.74998 1.7539C11.0637 1.7539 13.75 4.44019 13.75 7.75389C13.75 11.0676 11.0637 13.7539 7.74998 13.7539C4.43628 13.7539 1.75 11.0676 1.75 7.75389Z" fill="#333333"/>
</svg>
