<svg width="21" height="20" viewBox="0 0 21 20"  xmlns="http://www.w3.org/2000/svg">
<path d="M7.0625 7.50195L7.0625 15.002H8.3125L8.3125 7.50195H7.0625Z" />
<path d="M12.6875 7.50195L12.6875 15.002H13.9375V7.50195H12.6875Z" />
<path d="M9.875 15.002L9.875 7.50195H11.125L11.125 15.002H9.875Z" />
<path fill-rule="evenodd" clip-rule="evenodd" d="M6.75 3.12695C6.75 2.09142 7.58947 1.25195 8.625 1.25195H12.375C13.4105 1.25195 14.25 2.09142 14.25 3.12695V3.75195H18V5.00195H16.75V16.5645C16.75 17.7726 15.7706 18.752 14.5625 18.752H6.4375C5.22938 18.752 4.25 17.7726 4.25 16.5645V5.00195H3V3.75195H6.75V3.12695ZM8 3.75195H13V3.12695C13 2.78178 12.7202 2.50195 12.375 2.50195H8.625C8.27982 2.50195 8 2.78178 8 3.12695V3.75195ZM5.5 5.00195V16.5645C5.5 17.0822 5.91973 17.502 6.4375 17.502H14.5625C15.0803 17.502 15.5 17.0822 15.5 16.5645V5.00195H5.5Z" />
</svg>
