<svg width="8" height="14" viewBox="0 0 8 14" fill="none" xmlns="http://www.w3.org/2000/svg">
<path d="M1.759 0.823004C1.73578 0.799723 1.70819 0.781251 1.67782 0.768648C1.64745 0.756045 1.61489 0.749557 1.582 0.749557C1.54912 0.749557 1.51656 0.756045 1.48619 0.768648C1.45581 0.781251 1.42823 0.799723 1.405 0.823004L0.698004 1.53C0.674723 1.55323 0.656251 1.58082 0.643648 1.61119C0.631045 1.64156 0.624557 1.67412 0.624557 1.707C0.624557 1.73989 0.631045 1.77245 0.643648 1.80282C0.656251 1.83319 0.674723 1.86078 0.698004 1.884L5.822 7.008L0.698004 12.132C0.651289 12.1789 0.625057 12.2423 0.625057 12.3085C0.625057 12.3747 0.651289 12.4381 0.698004 12.485L1.405 13.192C1.42823 13.2153 1.45581 13.2338 1.48619 13.2464C1.51656 13.259 1.54912 13.2655 1.582 13.2655C1.61489 13.2655 1.64745 13.259 1.67782 13.2464C1.70819 13.2338 1.73578 13.2153 1.759 13.192L7.767 7.185C7.79029 7.16178 7.80876 7.13419 7.82136 7.10382C7.83396 7.07345 7.84045 7.04089 7.84045 7.008C7.84045 6.97512 7.83396 6.94256 7.82136 6.91219C7.80876 6.88181 7.79029 6.85423 7.767 6.831L1.759 0.823004Z" fill="#BFBFBF"/>
</svg>
