<svg width="16" height="17" viewBox="0 0 16 17" fill="none" xmlns="http://www.w3.org/2000/svg">
<path d="M5.75945 2.32345C5.73622 2.30017 5.70864 2.28169 5.67826 2.26909C5.64789 2.25649 5.61533 2.25 5.58245 2.25C5.54956 2.25 5.517 2.25649 5.48663 2.26909C5.45626 2.28169 5.42867 2.30017 5.40545 2.32345L4.69845 3.03045C4.67517 3.05367 4.65669 3.08126 4.64409 3.11163C4.63149 3.142 4.625 3.17456 4.625 3.20745C4.625 3.24033 4.63149 3.27289 4.64409 3.30326C4.65669 3.33364 4.67517 3.36122 4.69845 3.38445L9.82245 8.50845L4.69845 13.6324C4.65173 13.6793 4.6255 13.7428 4.6255 13.8089C4.6255 13.8751 4.65173 13.9386 4.69845 13.9854L5.40545 14.6924C5.42867 14.7157 5.45626 14.7342 5.48663 14.7468C5.517 14.7594 5.54956 14.7659 5.58245 14.7659C5.61533 14.7659 5.64789 14.7594 5.67826 14.7468C5.70864 14.7342 5.73622 14.7157 5.75945 14.6924L11.7674 8.68545C11.7907 8.66222 11.8092 8.63464 11.8218 8.60426C11.8344 8.57389 11.8409 8.54133 11.8409 8.50845C11.8409 8.47556 11.8344 8.443 11.8218 8.41263C11.8092 8.38226 11.7907 8.35467 11.7674 8.33145L5.75945 2.32345Z" fill="#8C8C8C"/>
</svg>
