<svg width="25" height="25" viewBox="0 0 25 25" fill="none" xmlns="http://www.w3.org/2000/svg">
<path fill-rule="evenodd" clip-rule="evenodd" d="M16.2183 12.8298C17.7544 11.6911 18.75 9.86465 18.75 7.80566C18.75 4.35388 15.9518 1.55566 12.5 1.55566C9.04822 1.55566 6.25 4.35388 6.25 7.80566C6.25 9.86465 7.24564 11.6911 8.78174 12.8298C5.95307 13.74 3.90625 16.3932 3.90625 19.5244V22.6494C3.90625 23.0809 4.25603 23.4307 4.6875 23.4307H20.3125C20.744 23.4307 21.0938 23.0809 21.0938 22.6494V19.5244C21.0938 16.3932 19.0469 13.74 16.2183 12.8298ZM7.8125 7.80566C7.8125 5.21683 9.91117 3.11816 12.5 3.11816C15.0888 3.11816 17.1875 5.21683 17.1875 7.80566C17.1875 10.3945 15.0888 12.4932 12.5 12.4932C9.91117 12.4932 7.8125 10.3945 7.8125 7.80566ZM10.9375 14.0557C7.91719 14.0557 5.46875 16.5041 5.46875 19.5244V21.8682H19.5312V19.5244C19.5312 16.5041 17.0828 14.0557 14.0625 14.0557H10.9375Z" fill="white"/>
</svg>
