<svg width="24" height="24" viewBox="0 0 24 24" fill="none" xmlns="http://www.w3.org/2000/svg">
<path fill-rule="evenodd" clip-rule="evenodd" d="M11.8125 1.50293C10.8347 1.50293 10.0159 2.18333 9.80354 3.0965C9.609 3.0357 9.40208 3.00293 9.1875 3.00293C8.04841 3.00293 7.125 3.92634 7.125 5.06543V5.33057C6.94619 5.27999 6.7575 5.25293 6.5625 5.25293C5.42341 5.25293 4.5 6.17634 4.5 7.31543V14.6279L4.50038 14.9462C4.5004 19.0884 7.8583 22.4462 12.0004 22.4462C16.1425 22.4462 19.5004 19.0883 19.5003 14.9462L19.5003 10.5023C19.5003 9.2597 18.493 8.25239 17.2504 8.25239C16.9873 8.25239 16.7347 8.29757 16.5 8.38059V4.31543C16.5 3.17634 15.5766 2.25293 14.4375 2.25293C14.1197 2.25293 13.8186 2.32483 13.5497 2.45324C13.1831 1.88167 12.542 1.50293 11.8125 1.50293ZM15 13.5758C13.439 13.8791 12.0552 15.0906 11.3295 16.5419L12.6712 17.2127C13.331 15.8931 14.6084 15.0027 15.7505 15.0027C15.9495 15.0027 16.1402 14.9236 16.2809 14.783C16.4215 14.6423 16.5005 14.4516 16.5006 14.2527L16.5005 10.5023C16.5005 10.0881 16.8363 9.75239 17.2504 9.75239C17.6646 9.75239 18.0003 10.0881 18.0003 10.5023L18.0003 14.9462C18.0004 18.2599 15.3141 20.9462 12.0004 20.9462C8.68671 20.9462 6.0004 18.26 6.00038 14.9462L6 7.31543C6 7.00477 6.25184 6.75293 6.5625 6.75293C6.87316 6.75293 7.125 7.00477 7.125 7.31543V12.3838C7.53903 12.2665 8.04934 12.171 8.625 12.1049V5.06543C8.625 4.75477 8.87684 4.50293 9.1875 4.50293C9.49816 4.50293 9.75 4.75477 9.75 5.06543V12.0185C9.99391 12.0083 10.2445 12.0029 10.5 12.0029C10.7555 12.0029 11.0061 12.0083 11.25 12.0185V3.56543C11.25 3.25477 11.5018 3.00293 11.8125 3.00293C12.1232 3.00293 12.375 3.25477 12.375 3.56543V12.1049C12.9295 12.1686 13.4234 12.2595 13.829 12.371H13.875V4.31543C13.875 4.00477 14.1268 3.75293 14.4375 3.75293C14.7482 3.75293 15 4.00477 15 4.31543V13.5758Z" fill="white"/>
</svg>
