<svg width="16" height="16" viewBox="0 0 16 16" fill="none" xmlns="http://www.w3.org/2000/svg">
<path d="M14.98 3.52891L13.688 6.82791L13.473 7.37791C13.414 7.52991 13.242 7.60491 13.09 7.54491L12.54 7.32991L9.24 6.03691C9.088 5.97691 9.013 5.80591 9.073 5.65391L9.288 5.10391C9.347 4.95191 9.519 4.87691 9.671 4.93691L12.404 6.00791C11.614 4.06391 9.723 2.68491 7.496 2.68491C4.561 2.68491 2.181 5.06491 2.181 7.99991C2.181 10.9349 4.56 13.3149 7.496 13.3149C9.809 13.3149 11.771 11.8349 12.502 9.77191H13.741C12.969 12.4969 10.469 14.4959 7.496 14.4959C3.908 14.4959 1 11.5879 1 7.99991C1 4.41191 3.908 1.50391 7.496 1.50391C9.95 1.50391 12.08 2.86791 13.183 4.87691L13.88 3.09791C13.939 2.94591 14.111 2.87091 14.263 2.93091L14.813 3.14591C14.964 3.20591 15.039 3.37691 14.98 3.52891Z" fill="#3075F2"/>
</svg>
