<svg width="101" height="105" viewBox="0 0 101 105" fill="none" xmlns="http://www.w3.org/2000/svg">
<path d="M41.0605 38C40.2321 38 39.5605 38.6716 39.5605 39.5C39.5605 40.3284 40.2321 41 41.0605 41H60.0286C60.857 41 61.5286 40.3284 61.5286 39.5C61.5286 38.6716 60.857 38 60.0286 38H41.0605Z" fill="#8E8E8E"/>
<path d="M13.2148 39.5C13.2148 38.6716 13.8864 38 14.7148 38H33.6829C34.5113 38 35.1829 38.6716 35.1829 39.5C35.1829 40.3284 34.5113 41 33.6829 41H14.7148C13.8864 41 13.2148 40.3284 13.2148 39.5Z" fill="#8E8E8E"/>
<path d="M72.5345 57.3864C71.9346 56.8151 70.9851 56.8383 70.4138 57.4382C69.8425 58.0381 69.8656 58.9875 70.4655 59.5589C71.4788 60.5238 72.2854 61.6846 72.8366 62.9707C73.3878 64.2568 73.672 65.6414 73.672 67.0407C73.672 68.4399 73.3878 69.8245 72.8366 71.1106C72.2854 72.3967 71.4788 73.5575 70.4655 74.5224C69.8656 75.0938 69.8425 76.0432 70.4138 76.6431C70.9851 77.243 71.9346 77.2662 72.5345 76.6949C73.8419 75.4497 74.8828 73.9519 75.594 72.2924C76.3053 70.6329 76.672 68.8462 76.672 67.0407C76.672 65.2351 76.3053 63.4485 75.594 61.7889C74.8828 60.1294 73.8419 58.6316 72.5345 57.3864Z" fill="#8E8E8E"/>
<path fill-rule="evenodd" clip-rule="evenodd" d="M20.1259 1.09038C20.3027 1.01704 20.4967 0.976562 20.7001 0.976562H73.2442C74.0726 0.976562 74.7442 1.64814 74.7442 2.47656V51.9304C79.489 55.4187 82.5684 61.0402 82.5684 67.3809C82.5684 71.1414 81.4852 74.6489 79.6139 77.6085L100.542 97.7891C100.832 98.0685 100.997 98.4527 101.001 98.8552C101.004 99.2578 100.846 99.6449 100.561 99.9295L95.9534 104.538C95.3751 105.116 94.4402 105.124 93.8515 104.557L74.7442 86.1317V99.5649C74.7442 100.393 74.0726 101.065 73.2442 101.065H1.5C0.671573 101.065 0 100.393 0 99.5649V21.6766C0 21.4738 0.0402671 21.2803 0.113244 21.1038C0.18645 20.9264 0.29515 20.7602 0.43934 20.616L19.6394 1.4159C19.7832 1.27209 19.949 1.16358 20.1259 1.09038ZM71.7442 3.97656V50.1218C69.2228 48.9012 66.3935 48.2168 63.4043 48.2168C61.8473 48.2168 60.3336 48.4025 58.8842 48.7529H14.7148C13.8864 48.7529 13.2148 49.4245 13.2148 50.2529C13.2148 51.0814 13.8864 51.7529 14.7148 51.7529H52.3098C49.327 53.8743 46.9776 56.8282 45.6005 60.2758C45.5673 60.2736 45.5338 60.2725 45.5 60.2725H14.7148C13.8864 60.2725 13.2148 60.944 13.2148 61.7725C13.2148 62.6009 13.8864 63.2725 14.7148 63.2725H44.6816C44.3926 64.596 44.2402 65.9706 44.2402 67.3809C44.2402 68.8993 44.4168 70.3765 44.7506 71.793H14.7148C13.8864 71.793 13.2148 72.4645 13.2148 73.293C13.2148 74.1214 13.8864 74.793 14.7148 74.793H45.7263C48.6242 81.6965 55.4481 86.5449 63.4043 86.5449C66.3935 86.5449 69.2228 85.8605 71.7442 84.6399V98.0649H3V23.1766H20.7001C21.5285 23.1766 22.2001 22.5051 22.2001 21.6766V3.97656H71.7442ZM80.8667 87.868L75.2469 82.4489C76.1709 81.7216 77.0264 80.9112 77.8021 80.0289L83.5836 85.6039L80.8667 87.868ZM85.756 87.6987L83.0391 89.9628L94.8736 101.375L97.36 98.8883L85.756 87.6987ZM19.2001 6.09788L5.12132 20.1766H19.2001V6.09788ZM63.4043 51.2168C54.4771 51.2168 47.2402 58.4537 47.2402 67.3809C47.2402 76.308 54.4771 83.5449 63.4043 83.5449C72.3315 83.5449 79.5684 76.308 79.5684 67.3809C79.5684 58.4537 72.3315 51.2168 63.4043 51.2168Z" fill="#8E8E8E"/>
</svg>
