<svg width="26" height="25" viewBox="0 0 26 25" fill="none" xmlns="http://www.w3.org/2000/svg">
<path fill-rule="evenodd" clip-rule="evenodd" d="M11.3398 14.466C11.3398 12.424 13.2739 10.7639 15.6729 10.7639H15.8555C15.4902 8.92108 13.5312 7.50165 11.1738 7.50165C8.52588 7.50165 6.35938 9.26971 6.35938 11.4611C6.40088 12.6896 7.04004 13.8185 8.06934 14.4826C8.13574 14.5324 8.16895 14.6154 8.15234 14.6984L7.78711 15.9767C7.77051 16.0349 7.80371 16.093 7.86182 16.1096C7.88672 16.1179 7.91992 16.1096 7.94482 16.1013L9.35596 15.2712C9.45557 15.2131 9.57178 15.2048 9.67969 15.2463C10.1611 15.3708 10.6592 15.4372 11.1572 15.4372H11.4976C11.3896 15.1218 11.3398 14.798 11.3398 14.466ZM12.7593 9.59344C13.1162 9.56024 13.4316 9.82587 13.4648 10.1828C13.498 10.5397 13.2324 10.8552 12.8755 10.8884C12.5186 10.9216 12.2031 10.6559 12.1699 10.299V10.2658C12.1699 9.91718 12.4604 9.63495 12.8091 9.62665L12.7593 9.59344ZM9.53857 10.8801C9.18164 10.8386 8.92432 10.5148 8.96582 10.1662C8.99902 9.86737 9.23975 9.62665 9.53857 9.59344C9.89551 9.63495 10.1528 9.95868 10.1113 10.3073C10.0781 10.6061 9.8374 10.8469 9.53857 10.8801Z" fill="white"/>
<path fill-rule="evenodd" clip-rule="evenodd" d="M19.6403 14.4574C19.6403 12.6146 17.8639 11.1371 15.6725 11.1371C13.4811 11.1371 11.7213 12.6312 11.7213 14.4574C11.7213 16.2835 13.4977 17.7777 15.6808 17.7777C16.0875 17.7777 16.4943 17.7279 16.8844 17.62C16.9923 17.5868 17.1168 17.5868 17.2247 17.62L18.2042 18.1512C18.2042 18.1512 18.2789 18.1761 18.3121 18.1512C18.337 18.1263 18.337 18.0931 18.3204 18.0599L18.1295 17.2713C18.0963 17.1551 18.1461 17.0306 18.2457 16.9559C19.0841 16.3914 19.5988 15.4618 19.6403 14.4574ZM14.2614 14.0174C13.9625 14.0174 13.7135 13.7767 13.7052 13.4779C13.6969 13.179 13.9459 12.93 14.2448 12.9217C14.5436 12.9217 14.7926 13.1624 14.8009 13.4613V13.4779C14.8009 13.7767 14.5602 14.0174 14.2614 14.0174ZM16.9342 14.0174C16.6354 14.0174 16.3864 13.7767 16.3781 13.4779C16.3698 13.179 16.6188 12.93 16.9176 12.9217C17.2164 12.9217 17.4655 13.1624 17.4738 13.4613V13.4779C17.4738 13.7767 17.233 14.0174 16.9342 14.0174Z" fill="white"/>
<path fill-rule="evenodd" clip-rule="evenodd" d="M13 1.56445C6.94874 1.56445 2.0625 6.45069 2.0625 12.502C2.0625 18.5532 6.94874 23.4395 13 23.4395C19.0513 23.4395 23.9375 18.5532 23.9375 12.502C23.9375 6.45069 19.0513 1.56445 13 1.56445ZM3.625 12.502C3.625 7.31363 7.81168 3.12695 13 3.12695C18.1883 3.12695 22.375 7.31363 22.375 12.502C22.375 17.6903 18.1883 21.877 13 21.877C7.81168 21.877 3.625 17.6903 3.625 12.502Z" fill="white"/>
</svg>
