<svg width="12" height="13" viewBox="0 0 12 13" fill="none" xmlns="http://www.w3.org/2000/svg">
<g clip-path="url(#clip0_1134_16257)">
<path d="M9.33223 11.2244H8.85293H9.04277C9.20449 11.215 9.33223 11.0814 9.33223 10.9174V11.2244ZM9.32871 6.44668V6.92598V6.73613C9.31934 6.57441 9.18574 6.44668 9.02168 6.44668H9.32871ZM2.65137 6.44199H3.13066H2.94082C2.7791 6.45137 2.65137 6.58496 2.65137 6.74902V6.44199ZM2.65254 11.2174V10.7381V10.9279C2.66191 11.0896 2.79551 11.2174 2.95957 11.2174H2.65254ZM3.62871 3.48535C3.89355 3.48535 4.10918 3.6998 4.10918 3.96582V5.96738C4.10918 6.23223 3.89473 6.44785 3.62871 6.44785C3.36387 6.44785 3.14824 6.2334 3.14824 5.96738V3.96582C3.14941 3.70098 3.36387 3.48535 3.62871 3.48535ZM5.12285 8.83145C5.12285 8.5666 5.3373 8.35098 5.60332 8.35098H6.3791C6.64394 8.35098 6.85957 8.56543 6.85957 8.83145C6.85957 9.09629 6.64512 9.31191 6.3791 9.31191H5.60332C5.33848 9.31074 5.12285 9.09629 5.12285 8.83145ZM8.36426 3.43848C8.6291 3.43848 8.84473 3.65293 8.84473 3.91895V4.19316C8.84473 4.45801 8.63027 4.67363 8.36426 4.67363C8.09941 4.67363 7.88379 4.45918 7.88379 4.19316V3.91895C7.88496 3.6541 8.09941 3.43848 8.36426 3.43848Z" fill="#86909C"/>
<path d="M5.99687 2.03228C7.03984 2.03228 7.88477 2.8772 7.88477 3.92017H8.84453C8.84453 2.34751 7.56953 1.07251 5.99687 1.07251C4.42422 1.07251 3.14922 2.34751 3.14922 3.92017H4.10898C4.10898 2.8772 4.95391 2.03228 5.99687 2.03228ZM10.2848 11.5444V6.20298C10.2449 5.81157 9.92148 5.50337 9.52422 5.48813H2.49531C2.05586 5.48813 1.69844 5.84439 1.69727 6.28384V11.4905C1.74414 11.8444 2.02305 12.1256 2.37578 12.176H9.65898C9.97539 12.1116 10.2238 11.862 10.2848 11.5444ZM2.65703 11.2151V6.44673H9.32617V11.2151H2.65703Z" fill="#86909C"/>
</g>
<defs>
<clipPath id="clip0_1134_16257">
<rect width="12" height="12" fill="white" transform="translate(0.00292969 0.615479)"/>
</clipPath>
</defs>
</svg>
