<svg width="24" height="24" viewBox="0 0 24 24" fill="none" xmlns="http://www.w3.org/2000/svg">
<rect width="24" height="24" rx="12" fill="#DE002E"/>
<path d="M7.12575 8.49804C8.21493 6.98398 9.99218 5.99805 11.9997 5.99805C15.3134 5.99805 17.9997 8.68434 17.9997 11.998C17.9997 15.0578 15.7094 17.5826 12.7496 17.9516V18.9583C16.263 18.5842 18.9997 15.6107 18.9997 11.998C18.9997 8.13205 15.8657 4.99805 11.9997 4.99805C9.76867 4.99805 7.78141 6.04178 6.49958 7.6676L6.49958 5.49805H5.49958L5.49958 8.99805C5.49958 9.13066 5.55226 9.25783 5.64603 9.3516C5.7398 9.44537 5.86698 9.49805 5.99958 9.49805L9.49958 9.49803L9.49958 8.49803L7.12575 8.49804Z" fill="white"/>
<path d="M11.2496 18.9583V17.9516C10.6975 17.8828 10.1688 17.7389 9.67383 17.5306L9.17033 18.4027C9.81777 18.6891 10.5168 18.8803 11.2496 18.9583Z" fill="white"/>
<path d="M7.87172 17.6519C7.28946 17.2261 6.77546 16.7125 6.34916 16.1306L7.22124 15.6271C7.55179 16.0617 7.94026 16.4498 8.37516 16.78L7.87172 17.6519Z" fill="white"/>
<path d="M5.01758 12.5022C5.07625 13.3267 5.27771 14.1117 5.59737 14.8326L6.46937 14.3292C6.22903 13.7597 6.07409 13.1453 6.02058 12.5022H5.01758Z" fill="white"/>
</svg>
