<svg width="18" height="18" viewBox="0 0 18 18" fill="none" xmlns="http://www.w3.org/2000/svg">
<path fill-rule="evenodd" clip-rule="evenodd" d="M13.7992 0.693801C14.0433 0.449723 14.439 0.449723 14.6831 0.6938L17.8081 3.8188C18.0522 4.06288 18.0522 4.45861 17.8081 4.70268L6.81696 15.6938C6.75387 15.7569 6.67801 15.8057 6.59447 15.8371L1.59447 17.7121C1.36499 17.7981 1.10638 17.7421 0.933076 17.5688C0.759772 17.3955 0.703755 17.1369 0.789812 16.9074L2.66481 11.9074C2.69614 11.8239 2.74499 11.748 2.80808 11.6849L13.7992 0.693801ZM3.75007 12.5734L2.44302 16.0589L5.92849 14.7518L3.75007 12.5734ZM4.6026 11.6582L6.84372 13.8993L14.5536 6.18941L12.3125 3.94829L4.6026 11.6582ZM16.4822 4.26074L15.4375 5.30552L13.1964 3.06441L14.2411 2.01963L16.4822 4.26074Z" fill="#4D148C"/>
</svg>
