<svg width="18" height="18" viewBox="0 0 18 18" fill="none" xmlns="http://www.w3.org/2000/svg">
<path d="M8.99999 8.00562L14.8309 2.17469C15.1055 1.9001 15.5507 1.9001 15.8253 2.17469C16.0999 2.44926 16.0999 2.89446 15.8253 3.16905L9.99439 9L15.8253 14.8309C16.0999 15.1055 16.0999 15.5507 15.8253 15.8253C15.5507 16.0999 15.1055 16.0999 14.831 15.8253L8.99999 9.99439L3.16905 15.8253C2.89448 16.0999 2.44928 16.0999 2.17469 15.8253C1.9001 15.5507 1.9001 15.1055 2.17469 14.8309L8.0056 9L2.17469 3.16905C1.9001 2.89448 1.9001 2.44928 2.17469 2.17469C2.44926 1.9001 2.89446 1.9001 3.16905 2.17469L8.99999 8.0056V8.00562Z" fill="#595959"/>
</svg>
