<svg width="14" height="14" viewBox="0 0 14 14" fill="none" xmlns="http://www.w3.org/2000/svg">
<path d="M13 5.00195L9 5.00197L9 4.00197L12.5 4.00196L11.6101 4.00195C10.6288 2.49685 8.93039 1.50195 6.99961 1.50195C4.13059 1.50195 1.77465 3.6987 1.52203 6.50195H0.518555C0.773867 3.14573 3.57799 0.501953 6.99961 0.501953C9.31564 0.501953 11.3488 1.71325 12.5 3.53688V0.501953H13.5V4.50195C13.5 4.77809 13.2761 5.00195 13 5.00195Z" fill="#8E8E8E"/>
<path d="M0.999998 9.00195L5 9.00193L5 10.0019L1.5 10.002L2.38908 10.002C3.37043 11.5071 5.06883 12.502 6.99961 12.502C9.86863 12.502 12.2246 10.3052 12.4772 7.50195H13.4807C13.2254 10.8582 10.4212 13.502 6.99961 13.502C4.68411 13.502 2.65139 12.2912 1.5 10.4683L1.5 13.502H0.5V9.50195C0.5 9.22581 0.723856 9.00195 0.999998 9.00195Z" fill="#8E8E8E"/>
</svg>
