<svg width="12" height="12" viewBox="0 0 12 12" fill="none" xmlns="http://www.w3.org/2000/svg">
<path d="M2 9C2.13132 9 2.26136 8.97413 2.38268 8.92388C2.50401 8.87362 2.61425 8.79997 2.70711 8.70711C2.79997 8.61425 2.87362 8.50401 2.92388 8.38268C2.97413 8.26136 3 8.13132 3 8C3 7.86868 2.97413 7.73864 2.92388 7.61732C2.87362 7.49599 2.79997 7.38575 2.70711 7.29289C2.61425 7.20003 2.50401 7.12638 2.38268 7.07612C2.26136 7.02587 2.13132 7 2 7C1.73478 7 1.48043 7.10536 1.29289 7.29289C1.10536 7.48043 1 7.73478 1 8C1 8.26522 1.10536 8.51957 1.29289 8.70711C1.48043 8.89464 1.73478 9 2 9Z" fill="#8E8E8E"/>
<path d="M2 5C2.26522 5 2.51957 4.89464 2.70711 4.70711C2.89464 4.51957 3 4.26522 3 4C3 3.73478 2.89464 3.48043 2.70711 3.29289C2.51957 3.10536 2.26522 3 2 3C1.86868 3 1.73864 3.02587 1.61732 3.07612C1.49599 3.12638 1.38575 3.20003 1.29289 3.29289C1.20003 3.38575 1.12638 3.49599 1.07612 3.61732C1.02587 3.73864 1 3.86868 1 4C1 4.13132 1.02587 4.26136 1.07612 4.38268C1.12638 4.50401 1.20003 4.61425 1.29289 4.70711C1.38575 4.79997 1.49599 4.87362 1.61732 4.92388C1.73864 4.97413 1.86868 5 2 5Z" fill="#8E8E8E"/>
<path d="M6 9C6.13132 9 6.26136 8.97413 6.38268 8.92388C6.50401 8.87362 6.61425 8.79997 6.70711 8.70711C6.79997 8.61425 6.87362 8.50401 6.92388 8.38268C6.97413 8.26136 7 8.13132 7 8C7 7.86868 6.97413 7.73864 6.92388 7.61732C6.87362 7.49599 6.79997 7.38575 6.70711 7.29289C6.61425 7.20003 6.50401 7.12638 6.38268 7.07612C6.26136 7.02587 6.13132 7 6 7C5.73478 7 5.48043 7.10536 5.29289 7.29289C5.10536 7.48043 5 7.73478 5 8C5 8.26522 5.10536 8.51957 5.29289 8.70711C5.48043 8.89464 5.73478 9 6 9Z" fill="#8E8E8E"/>
<path d="M6 5C6.26522 5 6.51957 4.89464 6.70711 4.70711C6.89464 4.51957 7 4.26522 7 4C7 3.73478 6.89464 3.48043 6.70711 3.29289C6.51957 3.10536 6.26522 3 6 3C5.86868 3 5.73864 3.02587 5.61732 3.07612C5.49599 3.12638 5.38575 3.20003 5.29289 3.29289C5.20003 3.38575 5.12638 3.49599 5.07612 3.61732C5.02587 3.73864 5 3.86868 5 4C5 4.13132 5.02587 4.26136 5.07612 4.38268C5.12638 4.50401 5.20003 4.61425 5.29289 4.70711C5.38575 4.79997 5.49599 4.87362 5.61732 4.92388C5.73864 4.97413 5.86868 5 6 5Z" fill="#8E8E8E"/>
<path d="M10 9C10.1313 9 10.2614 8.97413 10.3827 8.92388C10.504 8.87362 10.6142 8.79997 10.7071 8.70711C10.8 8.61425 10.8736 8.50401 10.9239 8.38268C10.9741 8.26136 11 8.13132 11 8C11 7.86868 10.9741 7.73864 10.9239 7.61732C10.8736 7.49599 10.8 7.38575 10.7071 7.29289C10.6142 7.20003 10.504 7.12638 10.3827 7.07612C10.2614 7.02587 10.1313 7 10 7C9.73478 7 9.48043 7.10536 9.29289 7.29289C9.10536 7.48043 9 7.73478 9 8C9 8.26522 9.10536 8.51957 9.29289 8.70711C9.48043 8.89464 9.73478 9 10 9Z" fill="#8E8E8E"/>
<path d="M10 5C10.2652 5 10.5196 4.89464 10.7071 4.70711C10.8946 4.51957 11 4.26522 11 4C11 3.73478 10.8946 3.48043 10.7071 3.29289C10.5196 3.10536 10.2652 3 10 3C9.86868 3 9.73864 3.02587 9.61732 3.07612C9.49599 3.12638 9.38575 3.20003 9.29289 3.29289C9.20003 3.38575 9.12638 3.49599 9.07612 3.61732C9.02587 3.73864 9 3.86868 9 4C9 4.13132 9.02587 4.26136 9.07612 4.38268C9.12638 4.50401 9.20003 4.61425 9.29289 4.70711C9.38575 4.79997 9.49599 4.87362 9.61732 4.92388C9.73864 4.97413 9.86868 5 10 5Z" fill="#8E8E8E"/>
</svg>
