<svg width="36" height="36" viewBox="0 0 36 36" fill="none" xmlns="http://www.w3.org/2000/svg">
<g clip-path="url(#clip0_691_5580)">
<g clip-path="url(#clip1_691_5580)">
<circle cx="18" cy="18" r="21.5" fill="white" stroke="#7D22C3" stroke-width="5"/>
<path d="M26.4505 16.8487H25.2795C25.1227 16.8487 24.9922 17.0428 24.9922 17.2637V21.4539C24.9922 21.6741 25.1227 21.8563 25.2795 21.8563H26.4505C26.6051 21.8563 26.7364 21.6741 26.7364 21.4539V17.2637C26.7364 17.0428 26.6051 16.8487 26.4505 16.8487ZM11.4173 16.8487H10.2463C10.0917 16.8487 9.96043 17.0428 9.96043 17.2637V21.4539C9.96043 21.6741 10.0917 21.8563 10.2463 21.8563H11.4173C11.5741 21.8563 11.7046 21.6741 11.7046 21.4539V17.2637C11.7046 17.0428 11.5741 16.8487 11.4173 16.8487ZM18 0.583496C8.38105 0.583496 0.583374 8.38117 0.583374 18.0002C0.583374 27.6192 8.38105 35.4168 18 35.4168C27.619 35.4168 35.4167 27.6192 35.4167 18.0002C35.4167 8.38117 27.619 0.583496 18 0.583496ZM28.1017 22.7758C28.101 23.1497 27.7889 23.449 27.4115 23.449H24.2382C23.8495 23.449 23.5502 23.1505 23.5502 22.7758L23.5368 14.973C23.4978 12.2435 21.1826 10.1477 18.3484 10.1349C15.5014 10.1477 13.1991 12.2435 13.16 14.973L13.1465 21.7398C13.1465 21.7398 14.043 24.703 16.1638 24.3529C16.3184 23.8349 16.8915 23.6416 17.2554 23.6416H19.4789C20.2456 23.6416 20.857 24.2365 20.857 24.962V25.377C20.857 26.1129 20.2464 26.7085 19.4789 26.7085H17.4369C16.8517 26.7085 16.3581 26.3592 16.1503 25.8666C16.124 25.8412 15.8382 25.8666 15.5779 25.8166C13.4833 25.0911 12.5741 23.4364 12.5741 23.4364L12.4563 23.4498H9.28295C8.9071 23.4498 8.59504 23.1513 8.59504 22.7766V15.9837C8.59578 15.6201 8.90787 15.3231 9.28373 15.3231H11.5598L11.5471 14.973C11.6386 8.62128 18.2321 8.59516 18.2321 8.59516H18.4654C18.4654 8.59516 25.0589 8.62128 25.1369 14.973V15.3231H27.4123C27.7896 15.3231 28.1017 15.6201 28.1017 15.9829V22.7758Z" fill="#7D22C3"/>
</g>
</g>
<defs>
<clipPath id="clip0_691_5580">
<path d="M36 18C36 8.05888 27.9411 0 18 0C8.05887 0 0 8.05888 0 18C0 27.9411 8.05887 36 18 36C27.9411 36 36 27.9411 36 18Z" fill="white"/>
</clipPath>
<clipPath id="clip1_691_5580">
<rect width="44" height="44" fill="white" transform="translate(-4 -4)"/>
</clipPath>
</defs>
</svg>
