<svg width="20" height="20" viewBox="0 0 20 20" fill="none" xmlns="http://www.w3.org/2000/svg">
<path d="M18.0998 16.9996L14.9998 13.9579C16.2504 12.5465 16.9085 10.7072 16.8371 8.82272C16.7657 6.93829 15.9703 5.154 14.6165 3.84127C13.1796 2.44688 11.2562 1.66699 9.25395 1.66699C7.25175 1.66699 5.32828 2.44688 3.89145 3.84127C3.18735 4.52411 2.62756 5.3414 2.24528 6.24467C1.863 7.14793 1.66602 8.11877 1.66602 9.0996C1.66602 10.0804 1.863 11.0513 2.24528 11.9545C2.62756 12.8578 3.18735 13.6751 3.89145 14.3579C5.20555 15.6224 6.92501 16.3806 8.74487 16.498C10.5647 16.6155 12.3674 16.0846 13.8331 14.9996L16.9665 18.0746C17.1066 18.2232 17.2964 18.3151 17.4998 18.3329C17.7103 18.3322 17.9128 18.2518 18.0665 18.1079C18.1415 18.0374 18.2019 17.9528 18.2442 17.8589C18.2865 17.765 18.3099 17.6636 18.313 17.5607C18.3161 17.4577 18.2988 17.3552 18.2622 17.2589C18.2257 17.1626 18.1705 17.0745 18.0998 16.9996ZM3.26645 9.0996C3.29278 7.53323 3.93751 6.04083 5.05999 4.94801C6.18248 3.85519 7.6916 3.25065 9.25812 3.26627C10.8232 3.25286 12.3302 3.85839 13.4509 4.95097C14.5715 6.04355 15.2151 7.53469 15.2415 9.0996C15.2151 10.6645 14.5715 12.1557 13.4509 13.2482C12.3302 14.3408 10.8232 14.9463 9.25812 14.9329C7.6916 14.9486 6.18248 14.344 5.05999 13.2512C3.93751 12.1584 3.29278 10.666 3.26645 9.0996Z" fill="#666666"/>
</svg>
