<svg width="50" height="51" viewBox="0 0 50 51" fill="none" xmlns="http://www.w3.org/2000/svg">
<path fill-rule="evenodd" clip-rule="evenodd" d="M3.125 25.5049C3.125 13.4024 12.8975 3.62988 25 3.62988C37.1025 3.62988 46.875 13.4024 46.875 25.5049C46.875 32.2684 43.8229 38.3043 39.0176 42.3134L39.0322 42.3859L38.8975 42.4129C35.1216 45.5179 30.2828 47.3799 25 47.3799C19.7172 47.3799 14.8784 45.5179 11.1025 42.4129L10.9678 42.3859L10.9824 42.3134C6.17712 38.3043 3.125 32.2684 3.125 25.5049ZM14.4307 41.0063C17.4375 43.0571 21.0755 44.2549 25 44.2549C28.9245 44.2549 32.5625 43.0571 35.5693 41.0063L34.6988 36.6534C34.1291 33.8051 31.6282 31.7549 28.7235 31.7549H21.2765C18.3718 31.7549 15.8709 33.8051 15.3012 36.6534L14.4307 41.0063ZM38.302 38.7352C41.6714 35.3477 43.75 30.6749 43.75 25.5049C43.75 15.1282 35.3766 6.75488 25 6.75488C14.6234 6.75488 6.25 15.1282 6.25 25.5049C6.25 30.6749 8.32862 35.3477 11.698 38.7352L12.2369 36.0406C12.9055 32.6976 15.3326 30.0813 18.4392 29.0762C16.7026 27.3747 15.625 25.003 15.625 22.3796C15.625 17.202 19.8224 13.0049 25 13.0049C30.1776 13.0049 34.375 17.202 34.375 22.3796C34.375 25.003 33.2974 27.3747 31.5608 29.0762C34.6674 30.0813 37.0945 32.6976 37.7631 36.0406L38.302 38.7352ZM25 16.1299C21.5482 16.1299 18.75 18.928 18.75 22.3796C18.75 25.8312 21.5482 28.6293 25 28.6293C28.4518 28.6293 31.25 25.8312 31.25 22.3796C31.25 18.928 28.4518 16.1299 25 16.1299Z" fill="url(#paint0_linear_64_27697)"/>
<defs>
<linearGradient id="paint0_linear_64_27697" x1="25" y1="3.62988" x2="25" y2="47.3799" gradientUnits="userSpaceOnUse">
<stop stop-color="#4D148C"/>
<stop offset="0.33" stop-color="#7D22C3"/>
<stop offset="1" stop-color="#FF6200"/>
</linearGradient>
</defs>
</svg>
