<svg width="116" height="94" viewBox="0 0 116 94" fill="none" xmlns="http://www.w3.org/2000/svg">
<g clip-path="url(#clip0_691_2872)">
<path d="M115.497 78.0822C115.497 74.327 112.233 71.2143 107.934 70.6051C107.822 67.7493 105.01 65.4541 101.551 65.4541C98.0285 65.4541 95.1681 67.8445 95.1681 70.7979C95.2012 71.7169 95.4808 72.6104 95.9779 73.3863C96.4751 74.1621 97.1718 74.7921 97.9961 75.2111C97.9811 75.2358 97.9702 75.2627 97.9638 75.2908C87.6707 73.1561 73.0939 71.8247 56.903 71.8247C46.6413 71.7852 36.3871 72.3813 26.2001 73.6095C25.861 69.6829 21.9498 66.5655 17.1508 66.5655C12.5292 66.5655 8.73197 69.4532 8.14957 73.1764C7.0722 73.4982 6.12127 74.1427 5.42693 75.0217C4.7326 75.9007 4.32877 76.9713 4.27072 78.087C4.27261 78.3405 4.29951 78.5931 4.35106 78.8414C1.87911 80.0895 0.505859 81.4365 0.505859 82.8489C0.505859 88.9303 25.7627 93.8564 56.9186 93.8564C87.7834 93.8564 112.863 89.01 113.316 83.0095C113.993 82.3749 114.535 81.612 114.909 80.7659C115.284 79.9198 115.484 79.0077 115.498 78.0834" fill="#F0EFEF"/>
<path d="M104.928 81.0187C104.928 83.9231 84.4214 86.2815 59.1166 86.2815C33.8118 86.2815 13.3037 83.9232 13.3037 81.0188C13.3037 78.1143 33.8107 75.7559 59.1155 75.7559C84.4203 75.7559 104.927 78.1142 104.927 81.0187" fill="#DFDFDF"/>
<path d="M10.0073 20.7155L9.57129 20.186C9.93071 19.8968 10.2985 19.6244 10.6868 19.353L11.0751 19.9147C10.7036 20.1872 10.3477 20.4442 10.0086 20.7167L10.0073 20.7155ZM11.6394 19.5256L11.2512 18.964C12.0268 18.4507 12.8185 17.9692 13.6261 17.5195L13.9652 18.1143C13.1085 18.5797 12.3332 19.0663 11.6382 19.5268L11.6394 19.5256ZM88.5592 61.1711C87.8642 61.1711 87.1692 61.1557 86.5222 61.1068L86.5701 60.4334C87.4788 60.4977 88.3904 60.5136 89.3009 60.4811L89.3166 61.1545C89.0577 61.17 88.7989 61.17 88.5568 61.17L88.5592 61.1711ZM90.0139 61.139L89.9815 60.4655C90.894 60.4281 91.8048 60.3587 92.7123 60.2574L92.7927 60.9308C91.8556 61.0272 90.9342 61.0914 90.0127 61.1391L90.0139 61.139ZM85.8128 61.0426C84.8784 60.9596 83.9501 60.8202 83.0328 60.625L83.1779 59.967C84.0627 60.1571 84.9588 60.291 85.8608 60.368L85.8128 61.0426ZM82.3546 60.4655C81.4395 60.2307 80.5513 59.9025 79.7041 59.4863L80.0108 58.8771C80.8144 59.2741 81.6578 59.5859 82.5271 59.8076L82.3546 60.4655ZM79.0906 59.1496C78.2637 58.6676 77.5215 58.0552 76.893 57.3362L77.4107 56.8864C77.9946 57.5473 78.6825 58.1099 79.4477 58.5522L79.0906 59.1496ZM76.44 56.7698C75.8888 55.9829 75.489 55.1014 75.261 54.1699L75.9236 54.0093C76.138 54.8578 76.4988 55.6629 76.99 56.389L76.44 56.7698ZM75.1159 53.4668C75.0167 52.8948 74.9733 52.3146 74.9865 51.7343C74.9865 51.3773 75.0021 51.0287 75.0345 50.6432L75.7127 50.7075C75.6803 51.0644 75.6648 51.413 75.6648 51.7343C75.6658 52.277 75.7091 52.8188 75.7942 53.3549L75.1159 53.4668ZM75.7942 50.0495L75.1159 49.9709C75.2402 49.0482 75.4344 48.1361 75.6971 47.2425L76.3598 47.4353C76.0986 48.2908 75.9094 49.1664 75.7942 50.053V50.0495ZM76.5371 46.7761L75.8744 46.5679C76.151 45.6848 76.4746 44.817 76.8439 43.968L77.4742 44.225C77.1279 45.0627 76.8153 45.9137 76.5371 46.7761ZM77.7522 43.598L77.1219 43.3254C77.4813 42.5389 77.8816 41.6882 78.3201 40.8386L78.9336 41.1432C78.5209 41.952 78.1277 42.7704 77.7546 43.5979L77.7522 43.598ZM79.2547 40.5494L78.6557 40.2282C79.0758 39.4421 79.5283 38.6397 80.0132 37.8211L80.5944 38.1781C80.1273 38.96 79.6802 39.7535 79.2535 40.5578L79.2547 40.5494ZM80.9514 37.5807L80.3703 37.2238C80.8497 36.4373 81.3397 35.6675 81.8406 34.8976L82.4061 35.2664C81.9053 36.0367 81.4204 36.807 80.9514 37.5772V37.5807ZM82.7932 34.7084L82.2276 34.3395C82.7069 33.6018 83.2462 32.8475 83.7949 32.0609L84.3605 32.4465C83.8104 33.1842 83.2941 33.9386 82.7932 34.7072V34.7084ZM84.7451 31.8848L84.1796 31.4838C84.6973 30.7616 85.246 30.0239 85.8116 29.2695L86.3616 29.6705C85.8122 30.4009 85.2733 31.1391 84.7451 31.8848ZM86.7654 29.141L86.2154 28.7233C86.7487 28.0177 87.3143 27.2955 87.893 26.5411L88.4262 26.9588C87.8761 27.681 87.3274 28.4033 86.7618 29.141H86.7654ZM88.8827 26.4293L88.3495 26.0116C88.9151 25.2894 89.4963 24.5837 90.0786 23.877L90.6118 24.3101C90.0307 25.0002 89.4483 25.7058 88.8827 26.4281V26.4293ZM91.048 23.7652L90.5147 23.332C91.0983 22.6239 91.6907 21.923 92.2918 21.2295L92.8095 21.6626C92.2104 22.3528 91.6304 23.0583 91.048 23.7652ZM93.2624 21.1474L92.7447 20.7143L93.1486 20.2491C93.6175 19.7192 94.07 19.1734 94.5062 18.6118L95.0394 19.0295C94.5904 19.5875 94.1326 20.1385 93.6662 20.6822L93.2624 21.1474ZM95.46 18.4833L94.91 18.0656C95.4912 17.2958 96.0411 16.5569 96.4941 15.8513L97.0597 16.2201C96.5606 16.997 96.0269 17.7513 95.46 18.4809V18.4833ZM14.5656 17.761L14.242 17.1662C15.0554 16.7237 15.8797 16.3011 16.714 15.8989L17.0208 16.5081C16.182 16.909 15.372 17.3267 14.5644 17.7598L14.5656 17.761ZM17.6355 16.2047L17.3443 15.5954C18.1847 15.194 19.0235 14.8089 19.8606 14.4401L20.1351 15.0659C19.2783 15.4348 18.4575 15.8037 17.6308 16.2047H17.6355ZM97.4479 15.6431L96.8667 15.2742C97.3509 14.5153 97.7879 13.7277 98.1753 12.9159L98.7887 13.205C98.4007 14.0487 97.9527 14.8638 97.4479 15.6443V15.6431ZM20.7594 14.7768L20.4754 14.1557C21.3141 13.7868 22.1721 13.4334 23.0289 13.0848L23.2877 13.7107C22.4489 14.0796 21.591 14.4329 20.7511 14.7816L20.7594 14.7768ZM23.9431 13.4608L23.6843 12.8349C24.5411 12.4982 25.3978 12.1615 26.2701 11.8402L26.5098 12.4816C25.6531 12.7862 24.7975 13.1229 23.9408 13.4608H23.9431ZM99.1015 12.578L98.4712 12.3054C98.8288 11.4905 99.0995 10.6407 99.2789 9.76981L99.957 9.89833C99.7673 10.819 99.4801 11.7172 99.1003 12.5779L99.1015 12.578ZM27.1593 12.221L26.9196 11.5796C27.7919 11.2583 28.6487 10.9537 29.521 10.6277L29.7475 11.269C28.8907 11.5903 28.0184 11.8949 27.1617 12.221H27.1593ZM30.4077 11.0656L30.1812 10.4242C31.0536 10.1197 31.9259 9.82939 32.7994 9.54133L33.0092 10.1827C32.1368 10.4719 31.2644 10.7598 30.4077 11.0656ZM33.6718 9.95781L33.4621 9.31652C34.3373 9.02802 35.2161 8.75034 36.0983 8.48355L36.308 9.12494C35.4188 9.39739 34.5465 9.68655 33.6718 9.95781ZM100.055 9.188L99.3771 9.12375C99.4091 8.86835 99.4251 8.61122 99.425 8.35385C99.427 7.74453 99.3344 7.13855 99.1507 6.5572L99.7965 6.34891C100.007 6.99687 100.11 7.67429 100.103 8.35504C100.102 8.63335 100.086 8.91141 100.055 9.188ZM36.9454 8.93694L36.7358 8.29556C37.6248 8.0231 38.4972 7.76607 39.3863 7.50904L39.5805 8.16704C38.7081 8.40507 37.8358 8.6644 36.9442 8.93694H36.9454ZM40.2586 7.95765L40.0645 7.29965C40.9536 7.04262 41.8415 6.78559 42.7306 6.54526L42.908 7.20326C42.0189 7.44129 41.1309 7.70062 40.2574 7.95765H40.2586ZM43.5718 7.00572L43.3945 6.34772C44.2835 6.10978 45.1715 5.87184 46.0606 5.64217L46.238 6.30255C45.3489 6.54049 44.4609 6.76778 43.5718 7.0081V7.00572ZM46.9006 6.13952L46.7172 5.48749C47.6063 5.26259 48.5146 5.03768 49.4001 4.81398L49.5619 5.47197L46.8958 6.14549L46.9006 6.13952ZM98.9049 5.94675C98.5196 5.1695 97.966 4.48647 97.2838 3.94659L97.7199 3.4171C98.4792 4.02448 99.0931 4.79179 99.5173 5.66356L98.9049 5.94675ZM50.245 5.31133L50.0832 4.65333C50.9878 4.44514 51.8806 4.23565 52.7816 4.02746L52.9267 4.68546C52.0375 4.89375 51.1292 5.10314 50.2438 5.31133H50.245ZM53.606 4.54152L53.4611 3.88352C54.3662 3.6749 55.2713 3.48252 56.1763 3.3064L56.3213 3.9644C55.4162 4.14132 54.5111 4.33369 53.606 4.54152ZM56.9839 3.81926L56.839 3.14584C57.7436 2.95307 58.6483 2.77691 59.5541 2.59965L59.6836 3.27316C58.7945 3.44923 57.8862 3.63007 56.9851 3.81936L56.9839 3.81926ZM96.7662 3.54681C96.0235 3.05232 95.2267 2.64316 94.3911 2.3272L94.6308 1.70133C95.5167 2.03136 96.3611 2.46219 97.1471 2.9852L96.7662 3.54681ZM60.3773 3.14465L60.2479 2.47114C61.1527 2.29507 62.0573 2.13442 62.9788 1.99517L63.0914 2.66868C62.17 2.81262 61.2653 2.98997 60.3761 3.14465H60.3773ZM63.7709 2.54971L63.6582 1.8762C64.5629 1.73226 65.4844 1.57162 66.389 1.4431L66.486 2.11652C65.581 2.24504 64.676 2.38944 63.7709 2.54971ZM93.7465 2.09991C92.8837 1.81355 92.0031 1.58302 91.1103 1.40978L91.2397 0.736266C92.1588 0.914741 93.0657 1.15042 93.9549 1.44191L93.7465 2.09991ZM67.1643 2.00352L67.0672 1.3301L69.8137 0.948133L69.894 1.62156C68.9892 1.75007 68.0846 1.87859 67.1632 2.0071L67.1643 2.00352ZM70.5902 1.5383L70.5098 0.864782C71.4313 0.752973 72.336 0.656587 73.2574 0.5602L73.3222 1.23371C72.4175 1.3301 71.5128 1.42649 70.5914 1.5383H70.5902ZM90.4536 1.30513C89.554 1.14866 88.6481 1.02952 87.7384 0.948042L87.8031 0.27462C88.7291 0.357428 89.6511 0.480492 90.5662 0.64346L90.4536 1.30513ZM74.0195 1.17662L73.9548 0.503102C74.8745 0.412185 75.7957 0.337206 76.718 0.2782L76.766 0.951714C75.8613 1.01597 74.9398 1.08023 74.0183 1.17662H74.0195ZM77.4406 0.898104L77.3926 0.224682C78.3124 0.158106 79.2338 0.115253 80.1558 0.0961667L80.1881 0.769589C79.2991 0.785102 78.3788 0.833846 77.4406 0.898104ZM87.0554 0.882682C86.1405 0.818219 85.2245 0.770201 84.3078 0.738653L84.3234 0.0652311C85.2928 0.09736 86.2143 0.129489 87.1033 0.209169L87.0554 0.882682ZM80.8832 0.73746L80.8676 0.0640378C81.7939 0.0344455 82.7209 0.0292419 83.6476 0.0484323L83.6319 0.721946H82.5812C82.0312 0.721946 81.4656 0.721946 80.8845 0.737368L80.8832 0.73746ZM93.52 60.8261L93.4229 60.1526C94.2618 60.0408 94.7482 59.9444 94.7482 59.9444L94.8776 60.6178C94.8932 60.6178 94.3983 60.7142 93.52 60.8261Z" fill="#D9D9D9"/>
<path d="M83.7758 9.00295H28.6559C28.6559 9.00295 24.4225 8.53781 24.1469 13.4638C23.8713 18.3898 24.1469 70.1399 24.1469 76.8639C24.0498 82.3515 31.7414 83.5557 34.4722 80.4263C38.1869 76.4308 35.7975 71.7295 35.0054 71.5023C34.2134 71.2751 86.6671 71.5023 86.6671 71.5023V15.3402C86.6828 15.3402 87.4268 8.98633 83.7746 9.00185" fill="white"/>
<path d="M30.1739 82.9786C28.2161 83.0236 26.3202 82.2962 24.9015 80.9558C24.3708 80.4161 23.9554 79.7754 23.6805 79.0722C23.4056 78.369 23.2768 77.6178 23.3018 76.8639C23.3018 75.3718 23.2863 71.5689 23.2694 66.5464C23.2047 49.329 23.0921 17.2678 23.3018 13.4162C23.5116 9.51698 26.0649 8.13672 28.3765 8.13672C28.6161 8.13672 28.7648 8.15223 28.7648 8.15223H83.7874C84.253 8.14182 84.7153 8.23223 85.1422 8.41717C85.5691 8.6021 85.9504 8.87713 86.2594 9.22313C87.9885 11.1483 87.6003 15.0154 87.5523 15.4497V72.3661H86.6956C86.4691 72.3661 63.2001 72.2543 48.0745 72.2543C41.5944 72.2543 38.3148 72.2698 36.6815 72.3019C36.8496 72.6582 36.9848 73.029 37.0854 73.4096C37.4525 74.7368 37.4653 76.1361 37.1224 77.4697C36.7795 78.8033 36.0927 80.0253 35.1298 81.0153C34.4861 81.6671 33.7123 82.1779 32.8579 82.515C32.0035 82.8521 31.0876 83.008 30.169 82.9727L30.1739 82.9786ZM28.3645 9.83946C27.1854 9.83946 25.1807 10.3154 25.0033 13.5138C24.7937 17.3214 24.9063 49.3456 24.971 66.5476C24.9866 71.5701 25.0033 75.3528 25.0033 76.8817C24.9785 77.4134 25.0648 77.9445 25.2568 78.4416C25.4488 78.9386 25.7423 79.3907 26.1189 79.7696C27.2197 80.7824 28.6748 81.3292 30.1751 81.2938C30.8512 81.324 31.5262 81.2143 32.1574 80.9718C32.7886 80.7292 33.3621 80.3591 33.8417 79.8849C34.4717 79.2477 34.9579 78.4846 35.2678 77.6463C35.5777 76.808 35.7043 75.9138 35.6391 75.0231C35.5429 73.8282 35.2176 72.6626 34.6804 71.5891L34.067 71.413L34.164 70.6753C34.212 70.3386 34.2611 70.8359 35.2628 70.7229V70.6908C35.2784 70.6908 35.2952 70.7062 35.3108 70.7062C36.7655 70.5456 40.1266 70.5456 48.0603 70.5456C61.5371 70.5456 81.4785 70.6253 85.8245 70.6419V15.3402C85.9372 14.2812 86.0019 11.5053 84.9523 10.3499C84.8057 10.1847 84.6237 10.0543 84.4196 9.96824C84.2155 9.88216 83.9946 9.84264 83.7731 9.85259H28.6533C28.5568 9.8394 28.4594 9.83421 28.3621 9.83707L28.3645 9.83946Z" fill="#BFBFBF"/>
<path d="M31.2893 19.4485H79.7672V29.5256H31.2892L31.2893 19.4485ZM31.2893 34.0506H43.4084V36.9064H31.2893V34.0506ZM31.2893 41.7847H55.5288V44.6405H31.2893V41.7847ZM31.2893 49.3262H45.9786V52.1819H31.2893V49.3262ZM31.2893 57.5102H60.6466V60.3658H31.2892L31.2893 57.5102ZM34.2621 69.754C34.2621 69.754 39.3044 79.173 29.9149 82.1286C50.2916 82.3214 70.6688 82.2734 91.0463 81.9846C91.9654 81.7263 92.8264 81.2962 93.5831 80.7175C94.6207 79.9437 95.4297 78.9073 95.9256 77.7166C96.3971 76.6405 96.5708 75.4589 96.4288 74.2938C96.2868 73.1287 95.8343 72.0224 95.118 71.089C94.5708 70.4836 93.8906 70.0113 93.1301 69.7087C73.4963 69.7405 53.8733 69.7564 34.261 69.7564" fill="#BFBFBF"/>
<path d="M95.62 70.6538C95.0046 69.967 94.2349 69.4338 93.3733 69.0975L93.2439 69.0498L33.114 69.0975L33.6473 70.0922C33.6629 70.1398 35.8449 74.2805 34.4549 77.6824C34.0166 78.6134 33.374 79.4353 32.5743 80.0877C31.7746 80.7401 30.838 81.2067 29.8332 81.453L29.753 81.4376H29.0256L29.01 81.7101L28.1377 82.2563L28.9621 82.9143C36.9905 82.9939 46.1235 82.9464 54.219 82.9464C66.5004 82.9464 78.7761 82.8607 91.0462 82.6894L91.2236 82.6572C92.232 82.3813 93.1763 81.9125 94.0036 81.277C95.1449 80.4323 96.033 79.295 96.5726 77.987C97.0777 76.7892 97.255 75.4801 97.0867 74.1923C96.9183 72.9046 96.4103 71.6838 95.6139 70.6538H95.62ZM95.2809 77.4729C94.8379 78.5563 94.0992 79.4954 93.148 80.1846C92.4815 80.6934 91.7252 81.0744 90.9181 81.3079C71.5909 81.5808 52.259 81.6343 32.9223 81.4685C34.1691 80.6836 35.1403 79.5342 35.7023 78.1785C36.5382 75.6343 36.3943 72.8727 35.2985 70.4277L92.9718 70.3801C93.5851 70.6429 94.1358 71.0308 94.5883 71.5188C95.2236 72.3608 95.6226 73.3551 95.7447 74.4003C95.8668 75.4454 95.7076 76.504 95.2833 77.4681L95.2809 77.4729Z" fill="#BFBFBF"/>
<path d="M97.6069 58.1361C96.6135 57.2678 95.3267 56.8038 94.0037 56.8367C95.2315 56.7978 96.417 56.3821 97.3971 55.6468C97.931 55.1773 98.3519 54.5947 98.6288 53.9421C98.9057 53.2895 99.0314 52.5834 98.9968 51.8761C99.0313 53.3029 99.602 54.6652 100.596 55.6956C101.544 56.4831 102.755 56.8894 103.99 56.8343C102.782 56.9011 101.62 57.3144 100.644 58.0242C100.099 58.4865 99.6662 59.0665 99.3805 59.72C99.0948 60.3735 98.9631 61.0832 98.9956 61.7949C99.0184 61.1241 98.9073 60.4555 98.6688 59.8276C98.4302 59.1996 98.0689 58.6248 97.6057 58.1361" fill="#EDEEEE"/>
<path d="M6.41936 24.2115C5.14988 23.1028 3.50439 22.5131 1.81446 22.5612C3.38227 22.5116 4.89572 21.979 6.14499 21.037C6.82176 20.4375 7.35568 19.696 7.70802 18.8662C8.06036 18.0364 8.2223 17.1391 8.18208 16.2394C8.2269 18.0555 8.9534 19.7895 10.2191 21.1013C11.4316 22.102 12.9741 22.622 14.5496 22.5612C13.0091 22.6488 11.5273 23.1783 10.2838 24.0854C9.58991 24.6743 9.04017 25.4123 8.67623 26.2436C8.31229 27.0748 8.14372 27.9774 8.18328 28.883C8.21994 28.0272 8.08289 27.1728 7.78027 26.3707C7.47765 25.5686 7.01566 24.8351 6.42176 24.2139" fill="#A9B1B6"/>
<path d="M95.75 36.6169C95.5123 36.3768 95.2277 36.1876 94.9137 36.0607C94.5996 35.9338 94.2628 35.8721 93.9238 35.8793C94.563 35.8535 95.1736 35.6098 95.6529 35.1891C95.9311 34.9065 96.1467 34.5692 96.2858 34.1989C96.4249 33.8286 96.4844 33.4336 96.4606 33.0391C96.474 33.8361 96.7587 34.6052 97.2682 35.2213C97.4968 35.4411 97.7678 35.6127 98.0649 35.7258C98.3621 35.8389 98.6792 35.8911 98.9972 35.8793C98.3719 35.9231 97.7772 36.165 97.3005 36.5694C97.0172 36.8497 96.7962 37.1859 96.6518 37.5562C96.5073 37.9265 96.4426 38.3228 96.4618 38.7195C96.4825 37.9573 96.2307 37.2124 95.7512 36.6169" fill="#EDEEEE"/>
<path d="M103.118 50.1294C102.518 49.5998 101.737 49.3183 100.936 49.3428C101.679 49.3186 102.396 49.0663 102.988 48.6206C103.311 48.3367 103.565 47.9847 103.733 47.5904C103.901 47.1961 103.977 46.7696 103.958 46.342C103.978 47.2056 104.324 48.0301 104.927 48.6527C105.501 49.1283 106.233 49.3744 106.98 49.3428C106.25 49.3853 105.549 49.6361 104.959 50.0651C104.629 50.3443 104.367 50.6946 104.193 51.0894C104.02 51.4843 103.939 51.9132 103.958 52.3437C103.976 51.9374 103.911 51.5318 103.767 51.1512C103.622 50.7706 103.402 50.423 103.119 50.1294M79.7839 65.618C79.4355 65.3161 78.9855 65.1556 78.5233 65.1682C78.9565 65.1546 79.3749 65.0087 79.7216 64.7505C79.9076 64.5867 80.0537 64.3832 80.149 64.1553C80.2442 63.9273 80.2862 63.6809 80.2716 63.4345C80.285 63.9331 80.4869 64.4085 80.8372 64.766C81.1705 65.0465 81.5992 65.1899 82.0355 65.167C81.6149 65.1904 81.2104 65.3356 80.872 65.5846C80.6812 65.7461 80.5299 65.9484 80.4292 66.1764C80.3285 66.4043 80.2812 66.6519 80.2908 66.9006C80.2962 66.4247 80.1169 65.9649 79.7899 65.6168" fill="#A9B1B6"/>
<path d="M92.4529 43.8383C92.4548 46.4616 91.7053 49.0313 90.2918 51.2475C88.8783 53.4637 86.8592 55.2349 84.4701 56.3545C82.6727 57.2053 71.3324 61.3937 69.1995 61.3937C66.9049 61.3937 74.0632 57.1101 72.1568 56.1309C69.9552 55.008 68.0947 53.3229 66.7666 51.2491C65.4384 49.1753 64.6906 46.7875 64.6001 44.3315C64.5096 41.8755 65.0797 39.4399 66.2517 37.2752C67.4236 35.1105 69.1552 33.295 71.2682 32.0153C73.3812 30.7357 75.7994 30.0381 78.274 29.9944C80.7486 29.9507 83.1903 30.5624 85.3478 31.7666C87.5053 32.9708 89.3008 34.724 90.5496 36.8459C91.7983 38.9678 92.4553 41.3818 92.4528 43.8395" fill="white"/>
<path d="M69.1838 62.421C68.894 62.4536 68.6013 62.3934 68.3485 62.2491C68.0956 62.1048 67.8958 61.884 67.7783 61.6189C67.39 60.6564 68.2145 59.8866 69.5757 58.6181C70.1918 58.0746 70.7647 57.4847 71.2892 56.8536C68.3415 55.2445 66.025 52.697 64.7129 49.6213C63.4008 46.5457 63.1694 43.121 64.0562 39.8989C64.9429 36.6768 66.896 33.8449 69.601 31.8594C72.3059 29.8738 75.6052 28.8502 78.9674 28.9534C82.3295 29.0566 85.5589 30.2806 88.1351 32.4283C90.7114 34.576 92.4847 37.5223 93.1693 40.7926C93.8539 44.0629 93.41 47.4669 91.909 50.4562C90.4081 53.4455 87.9376 55.8461 84.8954 57.2713C83.3604 57.9933 71.6774 62.4221 69.1886 62.4221L69.1838 62.421ZM78.5243 31.0345C75.6317 31.0355 72.8234 32.0019 70.5505 33.7784C68.2775 35.555 66.6719 38.0386 65.9914 40.8304C65.311 43.6221 65.5952 46.56 66.7986 49.172C68.0019 51.784 70.0544 53.9186 72.6264 55.2329C72.8559 55.3441 73.055 55.5086 73.2068 55.7124C73.3587 55.9162 73.4588 56.1534 73.4988 56.4038C73.6606 57.5747 72.497 58.6978 71.1238 59.9984C75.5033 58.6996 79.8127 57.1786 84.0351 55.4412C86.6887 54.1991 88.837 52.0964 90.1258 49.4795C91.4146 46.8626 91.7671 43.8877 91.1252 41.0452C90.4832 38.2027 88.8851 35.6622 86.5943 33.8425C84.3035 32.0227 81.4567 31.0323 78.523 31.0345H78.5243Z" fill="#BFBFBF"/>
<path d="M73.7727 43.8388C73.7727 44.1339 73.6846 44.4224 73.5195 44.6678C73.3544 44.9131 73.1197 45.1044 72.8452 45.2173C72.5706 45.3302 72.2685 45.3598 71.977 45.3022C71.6855 45.2446 71.4178 45.1025 71.2077 44.8939C70.9975 44.6852 70.8544 44.4193 70.7965 44.1299C70.7385 43.8405 70.7682 43.5405 70.882 43.2678C70.9957 42.9952 71.1883 42.7621 71.4354 42.5982C71.6825 42.4342 71.973 42.3467 72.2702 42.3467C72.6681 42.3486 73.0492 42.5064 73.3306 42.7858C73.6119 43.0652 73.7708 43.4437 73.7727 43.8388ZM79.7029 43.8388C79.7029 44.1339 79.6148 44.4224 79.4497 44.6678C79.2846 44.9131 79.0499 45.1044 78.7753 45.2173C78.5008 45.3302 78.1987 45.3598 77.9072 45.3022C77.6157 45.2446 77.348 45.1025 77.1378 44.8939C76.9277 44.6852 76.7846 44.4193 76.7266 44.1299C76.6686 43.8405 76.6984 43.5405 76.8121 43.2678C76.9259 42.9952 77.1184 42.7621 77.3655 42.5982C77.6126 42.4342 77.9032 42.3467 78.2003 42.3467C78.5982 42.3489 78.9791 42.5068 79.2604 42.7862C79.5417 43.0655 79.7007 43.4438 79.7029 43.8388ZM85.9087 43.8388C85.9087 44.1339 85.8205 44.4224 85.6554 44.6678C85.4903 44.9131 85.2557 45.1044 84.9811 45.2173C84.7065 45.3302 84.4044 45.3598 84.1129 45.3022C83.8215 45.2446 83.5537 45.1025 83.3436 44.8939C83.1335 44.6852 82.9903 44.4193 82.9324 44.1299C82.8744 43.8405 82.9042 43.5405 83.0179 43.2678C83.1316 42.9952 83.3242 42.7621 83.5713 42.5982C83.8184 42.4342 84.1089 42.3467 84.4061 42.3467C84.6039 42.345 84.8001 42.3824 84.9832 42.4568C85.1663 42.5311 85.3326 42.641 85.4725 42.7799C85.6123 42.9188 85.723 43.084 85.7978 43.2658C85.8727 43.4476 85.9104 43.6424 85.9087 43.8388Z" fill="#A9B1B6"/>
</g>
<defs>
<clipPath id="clip0_691_2872">
<rect width="115" height="94" fill="white" transform="translate(0.5)"/>
</clipPath>
</defs>
</svg>
