<svg width="14" height="14" viewBox="0 0 14 14" fill="none" xmlns="http://www.w3.org/2000/svg">
<g clip-path="url(#clip0_691_2852)">
<path d="M9.66932 11.9201C9.66932 11.9811 9.65728 12.0416 9.63388 12.098C9.61049 12.1543 9.5762 12.2056 9.53299 12.2487C9.48977 12.2918 9.43848 12.326 9.38204 12.3492C9.3256 12.3725 9.26513 12.3844 9.20409 12.3842H2.07809C1.83255 12.3842 1.61609 12.1516 1.61609 11.8458V2.15347C1.61609 1.84762 1.83147 1.61501 2.07809 1.61501H9.1427C9.43347 1.61501 9.66824 1.84978 9.66824 2.14055C9.66824 2.28336 9.72497 2.42032 9.82595 2.5213C9.92693 2.62228 10.0639 2.67901 10.2067 2.67901C10.3495 2.67901 10.4865 2.62228 10.5875 2.5213C10.6884 2.42032 10.7452 2.28336 10.7452 2.14055C10.7462 1.25532 10.029 0.538086 9.1427 0.538086H2.07701C1.21655 0.538086 0.538086 1.27039 0.538086 2.15347V11.8458C0.538086 12.7289 1.21762 13.4612 2.07701 13.4612H9.20409C10.0549 13.4612 10.7462 12.7719 10.7462 11.9201C10.7462 11.7773 10.6895 11.6403 10.5885 11.5393C10.4875 11.4384 10.3506 11.3816 10.2078 11.3816C10.065 11.3816 9.92801 11.4384 9.82703 11.5393C9.72605 11.6403 9.66932 11.7773 9.66932 11.9201Z" fill="#595959"/>
<path d="M11.5209 6.45337L10.2566 5.2386C10.1598 5.13832 10.1057 5.00441 10.1056 4.86502C10.1055 4.72564 10.1594 4.59165 10.2561 4.49123C10.3528 4.3908 10.4846 4.33177 10.6239 4.32655C10.7632 4.32133 10.899 4.37032 11.0029 4.46322L13.2397 6.61168C13.3427 6.71031 13.4023 6.84574 13.4055 6.98827C13.4087 7.1308 13.3553 7.26879 13.2569 7.37199L11.0202 9.72075C10.9216 9.82415 10.7861 9.88416 10.6433 9.8876C10.5005 9.89103 10.3622 9.8376 10.2588 9.73906C10.1554 9.64052 10.0954 9.50495 10.092 9.36216C10.0885 9.21937 10.1419 9.08107 10.2405 8.97768L11.6189 7.53029L4.84618 7.53891C4.77547 7.53905 4.70542 7.52526 4.64004 7.49833C4.57465 7.4714 4.51522 7.43186 4.46511 7.38196C4.41501 7.33206 4.37523 7.27278 4.34804 7.2075C4.32085 7.14223 4.30678 7.07224 4.30664 7.00152C4.3065 6.93081 4.32029 6.86077 4.34722 6.79538C4.37415 6.73 4.41369 6.67056 4.46359 6.62046C4.51349 6.57036 4.57277 6.53058 4.63805 6.50339C4.70332 6.47619 4.77331 6.46213 4.84403 6.46199L11.5199 6.45337H11.5209Z" fill="#595959"/>
</g>
<defs>
<clipPath id="clip0_691_2852">
<rect width="14" height="14" fill="white"/>
</clipPath>
</defs>
</svg>
