<?xml version="1.0" standalone="no"?><!DOCTYPE svg PUBLIC "-//W3C//DTD SVG 1.1//EN" "http://www.w3.org/Graphics/SVG/1.1/DTD/svg11.dtd"><svg t="1733795848397" class="icon" viewBox="0 0 1024 1024" version="1.1" xmlns="http://www.w3.org/2000/svg" p-id="1464" xmlns:xlink="http://www.w3.org/1999/xlink" width="200" height="200"><path d="M987.733333 827.178667h-166.741333a36.096 36.096 0 0 1-36.096-36.096l-0.384-425.130667c-2.261333-148.736-123.050667-262.186667-272-262.954667-148.949333 0.768-269.781333 114.218667-272.170667 262.954667l-0.256 368.810667s46.592 160.853333 157.525334 142.165333c8.490667-28.16 38.272-38.741333 57.472-38.741333h116.906666c39.850667 0 72.149333 32.298667 72.149334 72.192v22.613333c0 39.850667-32.298667 72.192-72.192 72.192h-107.52c-30.549333 0-56.576-19.2-67.157334-46.08-1.792-1.024-16.213333 0.256-30.293333-2.773333-109.482667-39.125333-157.44-129.664-157.44-129.664a29.013333 29.013333 0 0 1-5.674667 0.64H37.248a36.096 36.096 0 0 1-36.096-36.096V421.077333c0-19.925333 16.128-36.096 36.096-36.096h119.168c0-30.549333-0.128-19.2-0.128-19.2 4.266667-345.728 350.293333-346.88 350.293333-346.88 2.773333-0.085333 9.216-0.085333 11.861334 0 0 0 346.026667 1.28 350.293333 346.88 0 0 0-11.477333-0.128 19.2h119.168c19.925333 0 36.096 16.170667 36.096 36.096v370.005334a36.096 36.096 0 0 1-36.096 36.096zM163.84 490.794667c0-12.245333-6.570667-22.229333-14.634667-22.229334H87.594667c-8.106667 0-14.634667 9.984-14.634667 22.186667v227.84c0 12.373333 6.570667 22.229333 14.634667 22.229333h61.610666c8.106667 0 14.634667-9.941333 14.634667-22.186666v-227.84z m788.181333 0c0-12.245333-6.528-22.229333-14.634666-22.229334h-61.44c-8.106667 0-14.805333 9.984-14.805334 22.186667v227.84c0 12.373333 6.698667 22.229333 14.762667 22.229333h61.482667c8.106667 0 14.634667-9.941333 14.634666-22.186666v-227.84z" fill="#ffffff" p-id="1465"></path></svg>