<svg width="32" height="32" viewBox="0 0 32 32" fill="none" xmlns="http://www.w3.org/2000/svg">
<path fill-rule="evenodd" clip-rule="evenodd" d="M20.7594 16.4221C22.7256 14.9646 24 12.6267 24 9.99121C24 5.57293 20.4183 1.99121 16 1.99121C11.5817 1.99121 8 5.57293 8 9.99121C8 12.6267 9.27442 14.9646 11.2406 16.4221C7.61993 17.5871 5 20.9832 5 24.9912V28.9912C5 29.5435 5.44772 29.9912 6 29.9912H26C26.5523 29.9912 27 29.5435 27 28.9912V24.9912C27 20.9832 24.3801 17.5871 20.7594 16.4221ZM10 9.99121C10 6.6775 12.6863 3.99121 16 3.99121C19.3137 3.99121 22 6.6775 22 9.99121C22 13.3049 19.3137 15.9912 16 15.9912C12.6863 15.9912 10 13.3049 10 9.99121ZM14 17.9912C10.134 17.9912 7 21.1252 7 24.9912V27.9912H25V24.9912C25 21.1252 21.866 17.9912 18 17.9912H14Z" fill="#333333"/>
</svg>
