<svg width="82" height="24" viewBox="0 0 82 24" fill="none" xmlns="http://www.w3.org/2000/svg">
<g clip-path="url(#clip0_179_416)">
<path d="M37.8866 0.5305V9.46524H37.8311C36.6973 8.16454 35.2815 7.71204 33.6389 7.71204C30.2732 7.71204 27.7381 9.99692 26.8484 13.0173C25.8331 9.68945 23.2158 7.65005 19.3351 7.65005C16.183 7.65005 13.5657 9.09125 12.2826 11.5754V8.44893H5.93867V5.50772H12.9623V0.530273H0.0478516V22.4763H5.93867V13.1915H11.6659C11.4957 13.8615 11.4042 14.5866 11.4042 15.3431C11.4042 19.8971 14.8882 23.0926 19.3351 23.0926C23.0599 23.0926 25.5188 21.3516 26.8259 18.1787H21.8396C21.1787 19.1106 20.6639 19.3894 19.3351 19.3894C17.7747 19.3894 16.4289 18.0301 16.4289 16.4183L16.4302 16.3665H26.5568L26.5622 16.4183C27.0017 20.0357 29.8234 23.155 33.696 23.155C35.3662 23.155 36.896 22.3346 37.8311 20.9491H37.8866L37.8871 22.4763H43.0959V0.530273L37.8866 0.5305ZM16.5902 13.2506C16.913 11.8641 17.9901 10.9576 19.3351 10.9576C20.8152 10.9576 21.8375 11.8361 22.1062 13.2506C22.2195 13.2506 16.5902 13.2506 16.5902 13.2506ZM34.7803 19.0387C32.8932 19.0387 31.7205 17.2825 31.7205 15.4495C31.7205 13.49 32.7408 11.6058 34.7803 11.6058C36.8956 11.6058 37.7378 13.49 37.7378 15.4495C37.7378 17.3077 36.8448 19.0387 34.7803 19.0387Z" fill="white"/>
<path d="M43.0959 22.4763V0.530273H55.3307V5.50772H48.3071V8.44893H55.3307V13.2001H48.3071V17.4988H55.3307V22.4763H43.0959Z" fill="#FF6200"/>
<path d="M55.3307 22.4763L61.5813 15.4628L55.3307 8.44893L61.9255 8.44893L65.0213 11.8555L68.0023 8.44893H74.3674L68.1464 15.4341L74.4528 22.4763H67.8306L64.7633 19.0412L61.7243 22.4763L55.3307 22.4763Z" fill="#FF6200"/>
<path fill-rule="evenodd" clip-rule="evenodd" d="M78.7091 20.0939V21.4593H78.2668V18.4479H79.365C80.0073 18.4479 80.3037 18.7294 80.3037 19.2776C80.3037 19.6126 80.0749 19.8808 79.7805 19.919V19.9335C80.0343 19.9737 80.1285 20.2013 80.1825 20.6161C80.1882 20.654 80.1942 20.6961 80.2006 20.7406C80.239 21.009 80.2901 21.3671 80.371 21.4591H79.8478C79.7795 21.3006 79.754 21.104 79.7279 20.9028C79.7077 20.7468 79.6871 20.588 79.646 20.4421C79.5669 20.1875 79.4325 20.0937 79.1382 20.0937L78.7091 20.0939ZM79.2574 19.7059C79.6861 19.7059 79.8073 19.4783 79.8073 19.2776C79.8073 19.0378 79.6861 18.8502 79.2574 18.8502H78.7091V19.7056L79.2574 19.7059Z" fill="#FF6200"/>
<path fill-rule="evenodd" clip-rule="evenodd" d="M76.7243 19.9873C76.7243 18.5018 77.9052 17.4984 79.2438 17.4984C80.5844 17.4984 81.7633 18.5018 81.7633 19.9873C81.7633 21.4726 80.5844 22.4763 79.2438 22.4763C77.9052 22.4763 76.7243 21.4726 76.7243 19.9873ZM81.2807 19.9873C81.2807 18.7832 80.4247 17.8997 79.244 17.8997C78.0652 17.8997 77.2074 18.7832 77.2074 19.9873C77.2074 21.1914 78.0652 22.0738 79.244 22.0738C80.4247 22.0738 81.2807 21.1914 81.2807 19.9873Z" fill="#FF6200"/>
</g>
<defs>
<clipPath id="clip0_179_416">
<rect width="82" height="23" fill="white" transform="translate(0 0.5)"/>
</clipPath>
</defs>
</svg>
