<svg width="24" height="24" viewBox="0 0 24 24" fill="none" xmlns="http://www.w3.org/2000/svg">
<path d="M11.25 14.251V9.00098H12.75V14.251H11.25Z" fill="#DE002E"/>
<path d="M12 18.001C12.6213 18.001 13.125 17.4973 13.125 16.876C13.125 16.2547 12.6213 15.751 12 15.751C11.3787 15.751 10.875 16.2547 10.875 16.876C10.875 17.4973 11.3787 18.001 12 18.001Z" fill="#DE002E"/>
<path fill-rule="evenodd" clip-rule="evenodd" d="M12 2.25098C12.2617 2.25098 12.5046 2.38743 12.6406 2.61102L23.1406 19.861C23.2816 20.0926 23.2866 20.3821 23.1538 20.6184C23.021 20.8547 22.7711 21.001 22.5 21.001H1.5C1.22894 21.001 0.978975 20.8547 0.846177 20.6184C0.713378 20.3821 0.718415 20.0926 0.859351 19.861L11.3594 2.61102C11.4954 2.38743 11.7383 2.25098 12 2.25098ZM21.1655 19.501L12 4.44343L2.83454 19.501H21.1655Z" fill="#DE002E"/>
</svg>
