<svg width="22" height="22" viewBox="0 0 22 22" fill="none" xmlns="http://www.w3.org/2000/svg">
<path d="M9.65533 15.6553L17.1553 8.15533L16.0947 7.09467L9.125 14.0643L5.53033 10.4697L4.46967 11.5303L8.59467 15.6553C8.88756 15.9482 9.36244 15.9482 9.65533 15.6553Z" fill="#008A00"/>
<path fill-rule="evenodd" clip-rule="evenodd" d="M11 0.5C5.19079 0.5 0.5 5.19079 0.5 11C0.5 16.8092 5.19079 21.5 11 21.5C16.8092 21.5 21.5 16.8092 21.5 11C21.5 5.19079 16.8092 0.5 11 0.5ZM2 11C2 6.01921 6.01921 2 11 2C15.9808 2 20 6.01921 20 11C20 15.9808 15.9808 20 11 20C6.01921 20 2 15.9808 2 11Z" fill="#008A00"/>
</svg>
