<svg width="31" height="30" viewBox="0 0 31 30" fill="none" xmlns="http://www.w3.org/2000/svg">
<g clip-path="url(#clip0_691_2867)">
<path d="M20.5754 17.59C22.3958 16.1538 23.5697 13.9338 23.5697 11.4374C23.5697 7.10973 20.0609 3.60547 15.7339 3.60547C11.412 3.60547 7.90198 7.10973 7.90198 11.4374C7.90198 13.9338 9.07708 16.1538 10.8975 17.59C7.63263 19.2533 5.33156 22.5438 5.08008 26.3927H5.50518V26.3933H25.5931V26.3927H26.3928C26.1369 22.5431 23.839 19.2533 20.5754 17.59Z" fill="#595959"/>
<path d="M7.33346 16.7155C5.66113 15.7453 4.52433 13.9625 4.52433 11.89C4.52433 9.82122 5.66113 8.03399 7.33346 7.06825V5.66016C4.95326 6.72932 3.28539 9.1108 3.28539 11.8906C3.28539 14.0736 4.3092 16.0089 5.89794 17.2638C3.05049 18.7127 1.04239 21.5882 0.818359 24.9495H2.06687C2.30049 21.7989 4.51668 19.1615 7.33346 18.0515C7.38262 18.0764 7.33346 16.7155 7.33346 16.7155V16.7155ZM25.2658 17.2236C26.882 16.0019 27.9397 14.0889 27.9875 11.9078C28.0507 9.12867 26.4281 6.71016 24.0767 5.5957L24.0441 6.99932C25.6922 8.00273 26.7945 9.81228 26.7467 11.881C26.7103 13.9529 25.5352 15.714 23.8418 16.6484C23.8418 16.6484 23.8201 18.0284 23.8418 17.9882C26.6382 19.1563 28.7662 21.8353 28.9347 24.9872L30.1833 25.0159C30.0294 21.6457 28.0826 18.737 25.2658 17.2236Z" fill="#595959"/>
</g>
<defs>
<clipPath id="clip0_691_2867">
<rect width="30" height="30" fill="white" transform="translate(0.5)"/>
</clipPath>
</defs>
</svg>
