<svg width="10" height="10" viewBox="0 0 10 10" fill="none" xmlns="http://www.w3.org/2000/svg">
<path d="M3.59965 1.13965C3.58514 1.1251 3.5679 1.11356 3.54891 1.10568C3.52993 1.0978 3.50958 1.09375 3.48903 1.09375C3.46848 1.09375 3.44813 1.0978 3.42914 1.10568C3.41016 1.11356 3.39292 1.1251 3.3784 1.13965L2.93653 1.58153C2.92198 1.59604 2.91043 1.61329 2.90256 1.63227C2.89468 1.65125 2.89062 1.6716 2.89062 1.69215C2.89062 1.71271 2.89468 1.73306 2.90256 1.75204C2.91043 1.77102 2.92198 1.78827 2.93653 1.80278L6.13903 5.00528L2.93653 8.20778C2.90733 8.23707 2.89094 8.27674 2.89094 8.31809C2.89094 8.35945 2.90733 8.39912 2.93653 8.4284L3.3784 8.87028C3.39292 8.88483 3.41016 8.89638 3.42914 8.90425C3.44813 8.91213 3.46848 8.91618 3.48903 8.91618C3.50958 8.91618 3.52993 8.91213 3.54891 8.90425C3.5679 8.89638 3.58514 8.88483 3.59965 8.87028L7.35465 5.1159C7.36921 5.10139 7.38075 5.08415 7.38863 5.06516C7.3965 5.04618 7.40056 5.02583 7.40056 5.00528C7.40056 4.98473 7.3965 4.96438 7.38863 4.94539C7.38075 4.92641 7.36921 4.90917 7.35465 4.89465L3.59965 1.13965Z" fill="#595959"/>
</svg>
