<svg width="16" height="16" viewBox="0 0 16 16" fill="none" xmlns="http://www.w3.org/2000/svg">
<path fill-rule="evenodd" clip-rule="evenodd" d="M1 7.99803C1 4.12471 4.12666 0.998047 7.99998 0.998047C11.8733 0.998047 15 4.12471 15 7.99803C15 11.8714 11.8733 14.998 7.99998 14.998C4.12666 14.998 1 11.8714 1 7.99803ZM7.49998 8.99839V3.99841H8.49998V8.99839H7.49998ZM8.74998 10.999C8.74998 11.4132 8.4142 11.749 7.99998 11.749C7.58577 11.749 7.24998 11.4132 7.24998 10.999C7.24998 10.5848 7.58577 10.249 7.99998 10.249C8.4142 10.249 8.74998 10.5848 8.74998 10.999Z" fill="#F7B118"/>
</svg>
